<?xml version="1.0" encoding="UTF-8"?>
<svg version="1.1" xmlns="http://www.w3.org/2000/svg" width="1024" height="1024">
<path d="M0 0 C0.80732574 -0.00189835 1.61465149 -0.00379669 2.44644165 -0.00575256 C5.10257836 -0.00944261 7.75843856 0.0012212 10.41455078 0.01245117 C12.27011076 0.01364442 14.12567135 0.01409583 15.98123169 0.01383972 C19.86643264 0.0154017 23.75154108 0.02366782 27.63671875 0.03710938 C32.60182631 0.0540749 37.5668321 0.05792413 42.53196526 0.05716419 C46.36338257 0.05743699 50.19477792 0.06293615 54.0261879 0.07016563 C55.8561092 0.07333466 57.68603298 0.07531555 59.51595688 0.07605934 C62.08099292 0.07824311 64.64592423 0.08703148 67.2109375 0.09765625 C67.95821106 0.09720306 68.70548462 0.09674988 69.47540283 0.09628296 C74.30562547 0.1253344 78.95115955 0.56560575 83.73486328 1.24291992 C83.24655648 15.7748711 81.23396597 30.15320443 79.35131836 44.5546875 C78.88567934 48.11740564 78.42974698 51.68128999 77.97652531 55.24560642 C77.62267111 58.01975649 77.2636667 60.79322168 76.9031353 63.56651115 C76.65100879 65.51308536 76.40321784 67.46021956 76.15553284 69.40736389 C74.03200151 85.51277052 74.03200151 85.51277052 67.67236328 92.05541992 C64.30668026 95.3661964 64.30668026 95.3661964 61.73486328 99.24291992 C61.07486328 99.24291992 60.41486328 99.24291992 59.73486328 99.24291992 C59.46101807 99.83516357 59.18717285 100.42740723 58.9050293 101.03759766 C57.77668614 103.16409957 56.60406634 104.73397355 55.01220703 106.52807617 C54.47837402 107.13546631 53.94454102 107.74285645 53.39453125 108.36865234 C52.82621582 109.00778564 52.25790039 109.64691895 51.67236328 110.30541992 C47.73374454 114.78466522 43.84591649 119.27899977 40.10986328 123.93041992 C36.51821636 128.37064276 32.71415346 132.57747877 28.8269043 136.7565918 C24.99310067 140.90153496 21.41852552 145.22265468 17.88330078 149.62573242 C15.09833189 153.01833089 12.15301279 156.24830651 9.16845703 159.46557617 C7.52559017 161.12179803 7.52559017 161.12179803 7.73486328 163.24291992 C5.77559265 164.95728172 3.77606116 166.6269716 1.73486328 168.24291992 C6.02322674 168.24291992 8.00014219 165.71663466 11.04736328 162.99291992 C12.30886627 161.88720496 13.57059135 160.78174335 14.83251953 159.67651367 C15.47850098 159.10658691 16.12448242 158.53666016 16.79003906 157.94946289 C19.24379231 155.79634524 21.72685579 153.67914294 24.21289062 151.56347656 C28.84232197 147.62354856 33.42570291 143.64716775 37.92236328 139.55541992 C41.21428533 136.56373832 44.58077635 133.7176757 48.04736328 130.93041992 C52.26882703 127.51871509 56.27580395 123.94994364 60.23486328 120.24291992 C65.04034998 115.7433528 69.98647045 111.51188956 75.12158203 107.38745117 C77.73333951 105.24417037 80.2385163 103.01911662 82.73486328 100.74291992 C86.1308501 97.64736796 89.59657859 94.69140785 93.17236328 91.80541992 C97.9477073 87.94350317 102.47154013 83.86617769 106.98876953 79.70776367 C109.65361495 77.31584695 112.38318153 75.05037109 115.17236328 72.80541992 C119.16710582 69.58348675 122.98038437 66.23634381 126.73486328 62.74291992 C131.36734708 58.43295554 136.15608561 54.39230824 141.08642578 50.42260742 C143.70761447 48.26534594 146.22640609 46.02980992 148.73486328 43.74291992 C152.152257 40.62833324 155.64008678 37.65105372 159.23486328 34.74291992 C163.75941511 31.0798836 168.10765931 27.26765081 172.41455078 23.35229492 C177.99851131 18.27596716 183.73203745 13.37589992 189.48486328 8.49291992 C190.04020752 8.02063965 190.59555176 7.54835938 191.16772461 7.06176758 C192.68261734 5.77991764 194.20838287 4.51094862 195.73486328 3.24291992 C196.36055269 2.70490376 196.9862421 2.16688759 197.6308918 1.6125679 C200.10494335 0.00200439 201.42425833 -0.12994106 204.35153198 -0.12457275 C205.73510895 -0.13292648 205.73510895 -0.13292648 207.14663696 -0.14144897 C208.65379776 -0.1276268 208.65379776 -0.1276268 210.19140625 -0.11352539 C211.78716492 -0.11659195 211.78716492 -0.11659195 213.41516113 -0.11972046 C216.93596521 -0.12273129 220.45630225 -0.10423889 223.97705078 -0.08520508 C226.42318608 -0.08214734 228.86932311 -0.08027133 231.31546021 -0.07952881 C236.445075 -0.0749235 241.57453301 -0.06049065 246.70410156 -0.03833008 C253.27697947 -0.01007756 259.84973369 0.00087843 266.42266655 0.00535202 C271.47556799 0.00951162 276.52844447 0.01933412 281.58133316 0.03122711 C284.00461757 0.03692208 286.42790437 0.04168333 288.85119247 0.04549408 C292.24068138 0.05237733 295.63007345 0.06602055 299.01953125 0.08178711 C300.52061935 0.0834639 300.52061935 0.0834639 302.05203247 0.08517456 C306.72472457 0.11392569 311.13930412 0.27673248 315.73486328 1.24291992 C313.31157786 5.91639895 310.08111116 9.01017836 306.23486328 12.49291992 C305.60829834 13.06792236 304.9817334 13.6429248 304.33618164 14.23535156 C299.90693566 18.26762884 295.32278855 22.0606763 290.64501953 25.80151367 C287.047114 28.81989079 283.6457313 32.01649238 280.23486328 35.24291992 C275.1467845 40.05558834 269.95372749 44.59789181 264.47705078 48.96948242 C261.28444295 51.61634533 258.26049916 54.4086286 255.23486328 57.24291992 C250.42949535 61.74260107 245.48324295 65.97396086 240.34814453 70.09838867 C237.73638705 72.24166948 235.23121027 74.46672322 232.73486328 76.74291992 C229.38160056 79.80046184 225.96031128 82.71379743 222.42236328 85.55541992 C218.20089953 88.96712476 214.19392261 92.5358962 210.23486328 96.24291992 C205.42937658 100.74248704 200.48325612 104.97395028 195.34814453 109.09838867 C192.73638705 111.24166948 190.23121027 113.46672322 187.73486328 115.74291992 C183.43494537 119.66183244 178.97566781 123.33462861 174.45361328 126.99291992 C170.95578177 129.88767703 167.61700924 132.93881531 164.26220703 135.99682617 C161.66523935 138.3047959 159.00082316 140.49847855 156.29736328 142.68041992 C151.42902757 146.61784158 146.80140923 150.76956635 142.18798828 155.00073242 C134.26448001 162.24291992 134.26448001 162.24291992 131.73486328 162.24291992 C136.58105394 168.82559731 141.87989079 174.61253979 147.73486328 180.30541992 C156.39002028 188.7645289 156.39002028 188.7645289 159.92626953 192.93432617 C163.2133248 196.76448077 166.74120283 200.31074025 170.32470703 203.86010742 C170.91820953 204.44809616 171.51171204 205.0360849 172.12319946 205.64189148 C174.60620283 208.09713149 177.09288173 210.54857874 179.58374023 212.99584961 C181.41837047 214.80046593 183.24688378 216.61110078 185.07470703 218.42260742 C185.92765602 219.25536697 185.92765602 219.25536697 186.7978363 220.10494995 C188.14848377 221.44678699 189.44726787 222.84046733 190.73486328 224.24291992 C190.73486328 224.90291992 190.73486328 225.56291992 190.73486328 226.24291992 C191.39486328 226.24291992 192.05486328 226.24291992 192.73486328 226.24291992 C194.04174805 227.57543945 194.04174805 227.57543945 195.61376953 229.50073242 C198.73115343 233.16852815 202.02380018 236.60739839 205.44970703 239.98510742 C205.95402252 240.48375305 206.45833801 240.98239868 206.97793579 241.49615479 C209.07875176 243.56992518 211.18373439 245.63937724 213.29272461 247.70483398 C214.84935979 249.23145661 216.39986792 250.76409039 217.94970703 252.29760742 C218.86872803 253.19979004 219.78774902 254.10197266 220.73461914 255.03149414 C222.73486328 257.24291992 222.73486328 257.24291992 222.73486328 259.24291992 C223.72486328 259.57291992 224.71486328 259.90291992 225.73486328 260.24291992 C225.73486328 260.90291992 225.73486328 261.56291992 225.73486328 262.24291992 C226.39486328 262.24291992 227.05486328 262.24291992 227.73486328 262.24291992 C229.16149902 263.6907959 229.16149902 263.6907959 230.82666016 265.70581055 C234.75359659 270.3207588 238.95958927 274.5777165 243.26611328 278.83666992 C244.0608606 279.62763062 244.85560791 280.41859131 245.67443848 281.23352051 C248.1921476 283.73911515 250.71307774 286.2414285 253.23486328 288.74291992 C256.56074518 292.04203672 259.88318665 295.34456366 263.20361328 298.64916992 C264.33047546 299.76358459 264.33047546 299.76358459 265.48010254 300.9005127 C270.11262797 305.51171525 274.49535871 310.26892457 278.73486328 315.24291992 C279.31482056 315.91762329 279.89477783 316.59232666 280.49230957 317.28747559 C281.90937322 318.93682112 283.3225623 320.58949439 284.73486328 322.24291992 C281.86252029 323.20036759 280.05601137 323.37270624 277.07313538 323.38336182 C276.11557846 323.38907196 275.15802155 323.3947821 274.17144775 323.40066528 C273.12253357 323.40178314 272.07361938 323.402901 270.99291992 323.40405273 C269.88699997 323.40901764 268.78108002 323.41398254 267.64164734 323.4190979 C263.97609846 323.43372671 260.31059283 323.44052206 256.64501953 323.44604492 C254.10298155 323.45179491 251.56094359 323.45755266 249.01890564 323.46331787 C244.36845636 323.47248531 239.7180201 323.47878539 235.06756407 323.48181462 C228.223076 323.48629767 221.3787874 323.50385926 214.53435999 323.53281522 C208.60500909 323.55702924 202.67570795 323.56475852 196.74630547 323.56649017 C194.22366689 323.5695228 191.70102929 323.57757173 189.17842293 323.59067535 C185.65419396 323.60767795 182.1304542 323.60586976 178.60620117 323.59936523 C177.55931122 323.60858002 176.51242126 323.6177948 175.43380737 323.62728882 C174.47343063 323.62171967 173.51305389 323.61615051 172.52357483 323.6104126 C171.69048326 323.61187916 170.85739168 323.61334572 169.99905491 323.61485672 C167.19335483 323.1539668 165.78988978 322.17871513 163.73486328 320.24291992 C163.73486328 319.58291992 163.73486328 318.92291992 163.73486328 318.24291992 C163.07486328 318.24291992 162.41486328 318.24291992 161.73486328 318.24291992 C160.22705078 316.78198242 160.22705078 316.78198242 158.60986328 314.86791992 C158.07103516 314.24143555 157.53220703 313.61495117 156.97705078 312.96948242 C155.73486328 311.24291992 155.73486328 311.24291992 155.73486328 309.24291992 C155.07486328 309.24291992 154.41486328 309.24291992 153.73486328 309.24291992 C152.04345703 307.59838867 152.04345703 307.59838867 150.17236328 305.43041992 C149.55232422 304.72272461 148.93228516 304.0150293 148.29345703 303.28588867 C146.73486328 301.24291992 146.73486328 301.24291992 145.73486328 298.24291992 C145.07486328 298.24291992 144.41486328 298.24291992 143.73486328 298.24291992 C142.35986328 296.87963867 142.35986328 296.87963867 140.73486328 294.93041992 C137.79736906 291.47274443 134.79761712 288.09047251 131.73486328 284.74291992 C128.889621 281.62384981 126.06286748 278.49536601 123.29736328 275.30541992 C120.44300658 272.01757447 117.50338382 268.81405231 114.54736328 265.61791992 C110.4338346 261.168258 106.46349023 256.61690014 102.54736328 251.99291992 C98.7116246 247.46833886 94.78250298 243.16007206 90.52392578 239.02416992 C88.08016085 236.59107645 85.84432034 234.00269118 83.59423828 231.39135742 C81.4386401 228.90064524 79.24733169 226.4445187 77.04736328 223.99291992 C76.32162109 223.18338867 75.59587891 222.37385742 74.84814453 221.53979492 C72.86277239 219.38194128 70.824459 217.2994972 68.73486328 215.24291992 C66.81714671 216.99178094 64.90066645 218.74196493 62.98486328 220.49291992 C62.44603516 220.98405273 61.90720703 221.47518555 61.35205078 221.98120117 C60.82353516 222.46459961 60.29501953 222.94799805 59.75048828 223.44604492 C59.26870117 223.8859375 58.78691406 224.32583008 58.29052734 224.77905273 C57.7771582 225.26212891 57.26378906 225.74520508 56.73486328 226.24291992 C56.07042206 226.77620911 55.40598083 227.30949829 54.72140503 227.85894775 C52.10594024 230.99766622 51.81224838 233.92064509 51.39453125 237.8503418 C51.29962402 238.61193604 51.2047168 239.37353027 51.10693359 240.15820312 C50.79739688 242.6743554 50.51229034 245.19265753 50.22705078 247.71166992 C50.01493955 249.47101677 49.80122017 251.23017042 49.58596802 252.98913574 C49.02262731 257.62541456 48.479559 262.26384304 47.94116211 266.90307617 C47.28796828 272.50215547 46.61275744 278.09861087 45.93910408 283.69525909 C45.41404279 288.05900415 44.89268653 292.42306608 44.3835144 296.78869629 C43.38220272 305.3167116 42.27104232 313.79047152 40.73486328 322.24291992 C35.73778136 323.06065744 30.89788993 323.38697904 25.83105469 323.37231445 C24.69540825 323.37494293 24.69540825 323.37494293 23.53681946 323.37762451 C21.05333104 323.38199765 18.56991483 323.3791205 16.08642578 323.37573242 C14.34679145 323.3764069 12.60715721 323.37737814 10.86752319 323.37863159 C7.22791646 323.38010254 3.58833433 323.37797392 -0.05126953 323.37329102 C-4.69675857 323.36760262 -9.34218971 323.37087094 -13.98767662 323.37686348 C-17.57893299 323.38049264 -21.17017585 323.37931957 -24.76143265 323.37673569 C-26.47330355 323.37607248 -28.18517571 323.37687345 -29.89704514 323.37921524 C-46.33260857 323.39676303 -46.33260857 323.39676303 -54.26513672 322.24291992 C-53.59672593 309.66170116 -51.99220392 297.21679705 -50.42138672 284.72338867 C-50.13336683 282.41055853 -49.84568549 280.09768621 -49.55831909 277.78477478 C-48.79052478 271.61204798 -48.01839281 265.43987125 -47.2453537 259.26779938 C-46.43783613 252.81498439 -45.63402575 246.36170784 -44.83007812 239.90844727 C-44.50736329 237.31829727 -44.18463991 234.72814835 -43.86190796 232.13800049 C-43.7027528 230.86065285 -43.54359764 229.58330521 -43.3796196 228.26725006 C-42.89837993 224.40653153 -42.41661416 220.54587895 -41.9347229 216.6852417 C-40.19029933 202.70540221 -38.45880218 188.72414511 -36.75732422 174.73901367 C-32.6652851 141.13308927 -28.38390088 107.5559591 -23.95263672 73.99291992 C-23.82405022 73.01870338 -23.69546371 72.04448685 -23.56298065 71.0407486 C-20.53379666 48.09834212 -17.46475344 25.16225276 -14.26513672 2.24291992 C-9.45168847 0.33412036 -5.11432847 -0.03825258 0 0 Z M-0.26513672 170.24291992 C0.06486328 170.90291992 0.39486328 171.56291992 0.73486328 172.24291992 C1.39486328 171.58291992 2.05486328 170.92291992 2.73486328 170.24291992 C1.74486328 170.24291992 0.75486328 170.24291992 -0.26513672 170.24291992 Z M-2.26513672 172.24291992 C-2.26513672 175.24291992 -2.26513672 175.24291992 -2.26513672 175.24291992 Z " fill="#A164FE" transform="translate(389.26513671875,318.757080078125)"/>
<path d="M0 0 C-2 2 -2 2 -4.5625 2.5 C-5.366875 2.665 -6.17125 2.83 -7 3 C-8.50791956 6.01583912 -8.57653859 9.24848506 -8.9375 12.5625 C-9.02249756 13.30959229 -9.10749512 14.05668457 -9.19506836 14.82641602 C-9.46698331 17.21722008 -9.73406706 19.6085236 -10 22 C-10.34987363 25.14633653 -10.70463997 28.29206298 -11.0625 31.4375 C-11.14169678 32.16461182 -11.22089355 32.89172363 -11.30249023 33.64086914 C-11.88719819 38.77439638 -11.88719819 38.77439638 -13 41 C-13.20560807 43.33022478 -13.36599952 45.66456298 -13.5 48 C-13.88888889 54.77777778 -13.88888889 54.77777778 -15 57 C-15 57.825 -15 58.65 -15 59.5 C-15 62 -15 62 -16 64 C-16.20560807 66.33022478 -16.36599952 68.66456298 -16.5 71 C-16.88888889 77.77777778 -16.88888889 77.77777778 -18 80 C-18 80.99 -18 81.98 -18 83 C-18 86 -18 86 -19 88 C-19.042721 89.66611905 -19.04063832 91.33382885 -19 93 C-19 97.24331973 -19.76922459 101.3162851 -20.4375 105.5 C-20.57220703 106.36753906 -20.70691406 107.23507812 -20.84570312 108.12890625 C-20.97783203 108.96292969 -21.10996094 109.79695313 -21.24609375 110.65625 C-21.36654053 111.41744141 -21.4869873 112.17863281 -21.61108398 112.96289062 C-22 115 -22 115 -23 118 C-23 118.845625 -23 119.69125 -23 120.5625 C-23 123 -23 123 -24 125 C-24.12786762 126.39107743 -24.20198303 127.78734851 -24.24609375 129.18359375 C-24.27767578 130.0240625 -24.30925781 130.86453125 -24.34179688 131.73046875 C-24.37337891 132.62378906 -24.40496094 133.51710938 -24.4375 134.4375 C-24.77339011 142.43054591 -25.42274949 150.13034774 -27.5065918 157.88525391 C-28.34777763 161.49057391 -28.50330779 165.19258006 -28.8125 168.875 C-29.97148711 181.90337174 -31.79553607 194.83700493 -33.57861328 207.79101562 C-33.94924996 210.61352345 -34.26875676 213.43392324 -34.55859375 216.265625 C-35 220 -35 220 -36 222 C-36.2051555 223.95467605 -36.36576272 225.91417681 -36.5 227.875 C-36.74127337 231.38208084 -37.07509018 234.61107262 -38 238 C-38.65980241 242.53614154 -39.09694369 247.05437581 -39.4375 251.625 C-39.91139512 257.91891959 -40.40608567 264.21065215 -40.9375 270.5 C-41.01218506 271.45600098 -41.08687012 272.41200195 -41.16381836 273.39697266 C-41.56359776 278.02164701 -42.16268178 281.71045463 -44 286 C-44.25813559 288.22209502 -44.44278491 290.45366729 -44.5625 292.6875 C-44.90191083 298.80382166 -44.90191083 298.80382166 -46 301 C-46 302.155 -46 303.31 -46 304.5 C-46 308 -46 308 -47 310 C-47.06950541 311.54023996 -47.08452357 313.08334988 -47.0625 314.625 C-47.04896484 315.85089844 -47.04896484 315.85089844 -47.03515625 317.1015625 C-47.02355469 317.72804688 -47.01195312 318.35453125 -47 319 C-35.56077057 319.02313425 -24.12154668 319.04092063 -12.68229866 319.05181217 C-7.37103578 319.05703862 -2.05978885 319.06413198 3.25146484 319.07543945 C8.37372114 319.08627675 13.49596204 319.09227864 18.61822891 319.09487724 C20.5759213 319.09672996 22.53361281 319.10034767 24.49129868 319.10573006 C27.22582595 319.11295164 29.960289 319.11399046 32.69482422 319.11352539 C33.51049866 319.11712067 34.3261731 319.12071594 35.16656494 319.12442017 C39.21405825 319.21370963 39.21405825 319.21370963 43 318 C43.63912692 315.13565596 44.16944544 312.33120119 44.625 309.4375 C44.7590625 308.63119141 44.893125 307.82488281 45.03125 306.99414062 C45.36207299 304.9973876 45.68205038 302.9988433 46 301 C46.33 301 46.66 301 47 301 C46.85919445 303.77117304 46.71256882 306.54182641 46.5625 309.3125 C46.52318359 310.09818359 46.48386719 310.88386719 46.44335938 311.69335938 C46.40146484 312.45068359 46.35957031 313.20800781 46.31640625 313.98828125 C46.27974854 314.68477783 46.24309082 315.38127441 46.20532227 316.09887695 C46 318 46 318 45 321 C40.00291808 321.81773752 35.16302665 322.14405912 30.09619141 322.12939453 C28.96054497 322.13202301 28.96054497 322.13202301 27.80195618 322.13470459 C25.31846776 322.13907773 22.83505155 322.13620058 20.3515625 322.1328125 C18.61192817 322.13348698 16.87229392 322.13445821 15.13265991 322.13571167 C11.49305318 322.13718262 7.85347105 322.13505399 4.21386719 322.13037109 C-0.43162185 322.1246827 -5.077053 322.12795102 -9.7225399 322.13394356 C-13.31379627 322.13757271 -16.90503913 322.13639965 -20.49629593 322.13381577 C-22.20816683 322.13315256 -23.92003899 322.13395353 -25.63190842 322.13629532 C-42.06747185 322.15384311 -42.06747185 322.15384311 -50 321 C-49.33158921 308.41878124 -47.7270672 295.97387713 -46.15625 283.48046875 C-45.86823011 281.16763861 -45.58054878 278.85476629 -45.29318237 276.54185486 C-44.52538807 270.36912806 -43.75325609 264.19695132 -42.98021698 258.02487946 C-42.17269941 251.57206447 -41.36888903 245.11878792 -40.56494141 238.66552734 C-40.24222657 236.07537735 -39.91950319 233.48522843 -39.59677124 230.89508057 C-39.43761608 229.61773293 -39.27846092 228.34038528 -39.11448288 227.02433014 C-38.63324321 223.1636116 -38.15147744 219.30295903 -37.66958618 215.44232178 C-35.92516261 201.46248229 -34.19366546 187.48122518 -32.4921875 173.49609375 C-28.40014839 139.89016935 -24.11876416 106.31303918 -19.6875 72.75 C-19.5589135 71.77578346 -19.430327 70.80156693 -19.29784393 69.79782867 C-16.26865995 46.8554222 -13.19961672 23.91933284 -10 1 C-3.48214286 -1.33928571 -3.48214286 -1.33928571 0 0 Z " fill="#8239F2" transform="translate(385,320)"/>
<path d="M0 0 C5.11206587 3.13250412 9.15047064 6.85846532 13.3671875 11.1015625 C14.04677521 11.77923676 14.72636292 12.45691101 15.42654419 13.15512085 C16.85257646 14.57979849 18.27611173 16.00697945 19.69726562 17.43652344 C21.88188829 19.63192227 24.07706223 21.81636586 26.2734375 24 C27.6594965 25.38737941 29.0449356 26.77537847 30.4296875 28.1640625 C31.08895233 28.81927887 31.74821716 29.47449524 32.42745972 30.14956665 C33.02873688 30.75714813 33.63001404 31.36472961 34.24951172 31.99072266 C34.78212616 32.52492828 35.3147406 33.05913391 35.86349487 33.60952759 C37 35 37 35 37 37 C37.66 37 38.32 37 39 37 C40.30688477 38.33251953 40.30688477 38.33251953 41.87890625 40.2578125 C44.99629014 43.92560823 48.2889369 47.36447847 51.71484375 50.7421875 C52.21915924 51.24083313 52.72347473 51.73947876 53.24307251 52.25323486 C55.34388848 54.32700525 57.44887111 56.39645732 59.55786133 58.46191406 C61.11449651 59.98853669 62.66500464 61.52117047 64.21484375 63.0546875 C65.13386475 63.95687012 66.05288574 64.85905273 66.99975586 65.78857422 C69 68 69 68 69 70 C70.485 70.495 70.485 70.495 72 71 C72 71.66 72 72.32 72 73 C72.66 73 73.32 73 74 73 C75.42663574 74.44787598 75.42663574 74.44787598 77.09179688 76.46289062 C81.01873331 81.07783888 85.22472599 85.33479658 89.53125 89.59375 C90.32599731 90.38471069 91.12074463 91.17567139 91.9395752 91.99060059 C94.45728432 94.49619523 96.97821446 96.99850858 99.5 99.5 C102.82588189 102.7991168 106.14832336 106.10164374 109.46875 109.40625 C110.21999146 110.14919312 110.97123291 110.89213623 111.74523926 111.65759277 C116.37776469 116.26879533 120.76049543 121.02600465 125 126 C125.57995728 126.67470337 126.15991455 127.34940674 126.75744629 128.04455566 C128.17450994 129.6939012 129.58769902 131.34657446 131 133 C127.02202235 134.32599255 123.21261594 134.13909939 119.06567383 134.12939453 C117.69440842 134.13202301 117.69440842 134.13202301 116.29544067 134.13470459 C113.26595168 134.13911407 110.23652087 134.13618705 107.20703125 134.1328125 C105.10056039 134.13348609 102.99408961 134.13445658 100.88761902 134.13571167 C96.46665712 134.13718766 92.04571541 134.13503832 87.62475586 134.13037109 C81.97015418 134.12469134 76.31560015 134.12794229 70.66100025 134.13394356 C66.3071609 134.13756676 61.95333273 134.1364022 57.59949303 134.13381577 C55.51558107 134.13315045 53.43166809 134.13396105 51.34775734 134.13629532 C48.42557741 134.13884875 45.50347316 134.13494266 42.58129883 134.12939453 C41.2990316 134.13243088 41.2990316 134.13243088 39.99085999 134.13552856 C34.90733285 134.11774378 30.0325485 133.72786015 25 133 C28.79004692 130.5029118 32.62969705 130.73728645 37 130.8125 C38.06734375 130.8134668 38.06734375 130.8134668 39.15625 130.81445312 C42.59732386 130.84334274 45.69030209 131.07013249 49 132 C50.66842534 131.67558396 52.33480481 131.34060811 54 131 C58.01835893 130.87037552 61.53202075 130.92478905 65.5 131.5625 C68.83716877 131.9796461 71.54100875 131.69316886 74.84375 131.19140625 C78.07905213 130.90421458 81.16351074 131.36143885 84.37890625 131.73828125 C92.38648373 132.53784562 100.34410718 131.85133543 108.33984375 131.22265625 C114.22786238 130.86447369 120.10231164 130.91933253 126 131 C125.01 130.071875 125.01 130.071875 124 129.125 C122 127 122 127 122 125 C121.40058594 124.73960937 120.80117188 124.47921875 120.18359375 124.2109375 C117.85061626 122.91715749 116.70222219 121.70531236 115.0625 119.625 C112.61495199 116.64243522 110.02478684 114.40431775 107 112 C106.08296391 110.95574504 105.18752112 109.89220443 104.3125 108.8125 C102.30609749 105.98352767 102.30609749 105.98352767 100 105 C100 104.34 100 103.68 100 103 C99.34 103 98.68 103 98 103 C96.5546875 101.53125 96.5546875 101.53125 94.875 99.5 C91.13313308 95.09551082 87.12310005 91.04497816 83 87 C81.33333333 85.33333333 79.66666667 83.66666667 78 82 C77.401875 81.443125 76.80375 80.88625 76.1875 80.3125 C75 79 75 79 75 77 C74.443125 76.79375 73.88625 76.5875 73.3125 76.375 C71.05303189 75.03153247 70.0001344 73.94842298 68.375 71.9375 C66.32880603 68.99175287 66.32880603 68.99175287 64 68 C64 67.34 64 66.68 64 66 C63.34 66 62.68 66 62 66 C60.59643555 64.57519531 60.59643555 64.57519531 58.94921875 62.578125 C54.81225386 57.7136286 50.34992984 53.23880116 45.8125 48.75 C45.01908203 47.96109375 44.22566406 47.1721875 43.40820312 46.359375 C41.93842585 44.89823621 40.46761395 43.43813677 38.99536133 41.97949219 C38.33689209 41.32625977 37.67842285 40.67302734 37 40 C36.29327148 39.2992334 35.58654297 38.5984668 34.85839844 37.87646484 C32.3167456 35.31010334 30.01721136 32.55929181 27.68359375 29.8046875 C25.93233959 27.78876903 25.93233959 27.78876903 23 26 C23 25.34 23 24.68 23 24 C22.34 24 21.68 24 21 24 C19.765625 22.7421875 19.765625 22.7421875 18.25 20.875 C14.01454144 15.85385937 9.34070942 11.31293511 4.62402344 6.74951172 C4.02750977 6.16443848 3.43099609 5.57936523 2.81640625 4.9765625 C2.27443604 4.45143066 1.73246582 3.92629883 1.17407227 3.38525391 C0 2 0 2 0 0 Z " fill="#D9B0F4" transform="translate(543,508)"/>
<path d="M0 0 C2.43754626 0.01239916 4.87511205 0.02138405 7.31268311 0.02711487 C13.7093183 0.05190201 20.10450588 0.12556498 26.50061035 0.20880127 C31.72386317 0.26888258 36.94702771 0.29530972 42.1705513 0.31977749 C52.96453144 0.37041932 63.75845557 0.44330701 74.55175781 0.57592773 C75.54305695 0.58490082 76.53435608 0.5938739 77.55569458 0.6031189 C82.19861873 0.66844808 86.60504576 0.86839874 91.171875 1.81640625 C88.74858958 6.48988528 85.51812288 9.58366468 81.671875 13.06640625 C81.04531006 13.64140869 80.41874512 14.21641113 79.77319336 14.80883789 C75.34394738 18.84111517 70.75980027 22.63416262 66.08203125 26.375 C61.81118238 29.9579269 57.80009933 33.80265787 53.75195312 37.63305664 C48.43330837 42.63879966 42.91670445 47.30175858 37.171875 51.81640625 C36.841875 51.15640625 36.511875 50.49640625 36.171875 49.81640625 C37.83854167 48.14973958 39.50520833 46.48307292 41.171875 44.81640625 C41.81125 44.15640625 42.450625 43.49640625 43.109375 42.81640625 C45.67458425 40.32893061 48.42740481 38.10346474 51.171875 35.81640625 C51.79191406 35.18605469 52.41195312 34.55570312 53.05078125 33.90625 C55.28638232 31.70358596 57.63322487 29.80564865 60.109375 27.87890625 C63.70477526 25.0340786 66.97002618 22.10251425 70.171875 18.81640625 C73.89413739 15.45310418 77.68862697 12.19546478 81.609375 9.06640625 C84.38818976 7.00784753 84.38818976 7.00784753 85.171875 3.81640625 C84.62226923 3.81640625 84.07266346 3.81640625 83.50640297 3.81640625 C47.72822698 3.81640625 11.95005099 3.81640625 -23.828125 3.81640625 C-25.45587533 5.16017855 -27.03154293 6.56745957 -28.578125 8.00390625 C-32.25448801 11.38189776 -35.96022227 14.66101192 -39.828125 17.81640625 C-40.488125 17.48640625 -41.148125 17.15640625 -41.828125 16.81640625 C-40.27827479 14.88679142 -38.68940798 13.02876123 -37.01629639 11.20384216 C-35.66607774 9.73066665 -34.35408489 8.22001514 -33.11065674 6.65565491 C-24.41009978 -2.39880197 -11.56451534 -0.19367282 0 0 Z " fill="#EAC3FA" transform="translate(613.828125,318.18359375)"/>
<path d="M0 0 C0.33 0 0.66 0 1 0 C1.11777212 7.06632702 0.63946435 13.9658922 0 21 C-0.24174609 24.13526086 -0.48272977 27.27055271 -0.71875 30.40625 C-0.96803125 32.70517713 -1.40480082 34.77265306 -2 37 C-2.65980241 41.53614154 -3.09694369 46.05437581 -3.4375 50.625 C-3.91139512 56.91891959 -4.40608567 63.21065215 -4.9375 69.5 C-5.04952759 70.93400146 -5.04952759 70.93400146 -5.16381836 72.39697266 C-5.56359776 77.02164701 -6.16268178 80.71045463 -8 85 C-8.25813559 87.22209502 -8.44278491 89.45366729 -8.5625 91.6875 C-8.90191083 97.80382166 -8.90191083 97.80382166 -10 100 C-10 101.155 -10 102.31 -10 103.5 C-10 107 -10 107 -11 109 C-11.06950541 110.54023996 -11.08452357 112.08334988 -11.0625 113.625 C-11.05347656 114.44226563 -11.04445313 115.25953125 -11.03515625 116.1015625 C-11.02355469 116.72804688 -11.01195312 117.35453125 -11 118 C0.43922943 118.02313425 11.87845332 118.04092063 23.31770134 118.05181217 C28.62896422 118.05703862 33.94021115 118.06413198 39.25146484 118.07543945 C44.37372114 118.08627675 49.49596204 118.09227864 54.61822891 118.09487724 C56.5759213 118.09672996 58.53361281 118.10034767 60.49129868 118.10573006 C63.22582595 118.11295164 65.960289 118.11399046 68.69482422 118.11352539 C69.51049866 118.11712067 70.3261731 118.12071594 71.16656494 118.12442017 C75.21405825 118.21370963 75.21405825 118.21370963 79 117 C79.63912692 114.13565596 80.16944544 111.33120119 80.625 108.4375 C80.7590625 107.63119141 80.893125 106.82488281 81.03125 105.99414062 C81.36207299 103.9973876 81.68205038 101.9988433 82 100 C82.33 100 82.66 100 83 100 C82.85919445 102.77117304 82.71256882 105.54182641 82.5625 108.3125 C82.52318359 109.09818359 82.48386719 109.88386719 82.44335938 110.69335938 C82.40146484 111.45068359 82.35957031 112.20800781 82.31640625 112.98828125 C82.27974854 113.68477783 82.24309082 114.38127441 82.20532227 115.09887695 C82 117 82 117 81 120 C76.00291808 120.81773752 71.16302665 121.14405912 66.09619141 121.12939453 C64.96054497 121.13202301 64.96054497 121.13202301 63.80195618 121.13470459 C61.31846776 121.13907773 58.83505155 121.13620058 56.3515625 121.1328125 C54.61192817 121.13348698 52.87229392 121.13445821 51.13265991 121.13571167 C47.49305318 121.13718262 43.85347105 121.13505399 40.21386719 121.13037109 C35.56837815 121.1246827 30.922947 121.12795102 26.2774601 121.13394356 C22.68620373 121.13757271 19.09496087 121.13639965 15.50370407 121.13381577 C13.79183317 121.13315256 12.07996101 121.13395353 10.36809158 121.13629532 C-6.06747185 121.15384311 -6.06747185 121.15384311 -14 120 C-13.32217904 107.07575945 -11.65436398 94.28104576 -10.05859375 81.4453125 C-9.76824955 79.08881384 -9.47822077 76.73227629 -9.18849182 74.3757019 C-8.43047541 68.21711847 -7.66821562 62.05906766 -6.9050293 55.90112305 C-6.12484584 49.59976662 -5.34873419 43.29790882 -4.57226562 36.99609375 C-3.05213075 24.66357229 -1.52750634 12.33161045 0 0 Z " fill="#5F3CF0" transform="translate(349,521)"/>
<path d="M0 0 C0.99 0.99 0.99 0.99 2 2 C-4.61332826 8.17474803 -11.30031876 14.14295006 -18.3515625 19.8203125 C-21.83486454 22.68710091 -25.14762944 25.72279913 -28.48046875 28.76171875 C-31.03204917 31.02847158 -33.65171532 33.17540087 -36.3125 35.3125 C-40.53396375 38.72420484 -44.54094067 42.29297628 -48.5 46 C-53.29614064 50.49081603 -58.22902872 54.71784757 -63.359375 58.828125 C-66.97119067 61.79878996 -70.39184668 64.96075299 -73.80859375 68.15234375 C-75.81659848 69.84536734 -77.60384216 70.9574803 -80 72 C-79.13171626 67.03384055 -75.77356765 64.9921386 -72 62 C-65.40483484 56.69901953 -59.003632 51.29696125 -52.8840332 45.4543457 C-49.21212985 42 -49.21212985 42 -47 42 C-47 41.34 -47 40.68 -47 40 C-45.13671875 38.37890625 -45.13671875 38.37890625 -42.6875 36.5625 C-39.92087948 34.49978615 -37.42896601 32.44126458 -35 30 C-32.28499923 27.75571144 -29.53743679 25.5548047 -26.7890625 23.3515625 C-24.03191964 21.02691264 -21.54709598 18.55094356 -19 16 C-16.70110456 13.9383965 -14.35344071 11.93641599 -12 9.9375 C-11.39671875 9.42123047 -10.7934375 8.90496094 -10.171875 8.37304688 C-6.8283437 5.52014245 -3.44979483 2.72455387 0 0 Z " fill="#D7A5F9" transform="translate(648,369)"/>
<path d="M0 0 C1.07909637 -0.00262848 1.07909637 -0.00262848 2.17999268 -0.00531006 C4.54930054 -0.0096974 6.91853322 -0.00680063 9.2878418 -0.00341797 C10.94304926 -0.00409212 12.59825662 -0.00506308 14.25346375 -0.00631714 C17.720906 -0.00779008 21.18832247 -0.00565334 24.65576172 -0.00097656 C29.08393323 0.00470709 33.51204394 0.00144782 37.9402132 -0.00454903 C41.35900829 -0.00817697 44.77778917 -0.00700558 48.1965847 -0.00442123 C49.8283406 -0.00375744 51.46009783 -0.00456111 53.09185219 -0.00690079 C55.38158159 -0.00946259 57.67121516 -0.00553688 59.9609375 0 C61.91021904 0.00119339 61.91021904 0.00119339 63.89888 0.00241089 C67.89510791 0.13681198 71.71722857 0.57603508 75.67456055 1.12939453 C75.19735823 10.9120421 74.37882843 20.4663611 72.67456055 30.12939453 C72.01456055 29.79939453 71.35456055 29.46939453 70.67456055 29.12939453 C71.00456055 24.50939453 71.33456055 19.88939453 71.67456055 15.12939453 C72.33456055 15.12939453 72.99456055 15.12939453 73.67456055 15.12939453 C73.48893555 14.05689453 73.30331055 12.98439453 73.11206055 11.87939453 C72.73062307 8.60993047 72.7765357 7.13611475 73.67456055 4.12939453 C72.42545898 4.14099609 71.17635742 4.15259766 69.8894043 4.16455078 C60.75523019 4.22149479 51.67080158 4.12785108 42.54956055 3.62939453 C23.95552357 2.64577978 5.28800743 3.04693872 -13.32543945 3.12939453 C-12.99543945 2.46939453 -12.66543945 1.80939453 -12.32543945 1.12939453 C-8.24997712 -0.0651951 -4.22183849 0.00258945 0 0 Z " fill="#A739F9" transform="translate(397.325439453125,318.87060546875)"/>
<path d="M0 0 C5.11206587 3.13250412 9.15047064 6.85846532 13.3671875 11.1015625 C14.04677521 11.77923676 14.72636292 12.45691101 15.42654419 13.15512085 C16.85257646 14.57979849 18.27611173 16.00697945 19.69726562 17.43652344 C21.88188829 19.63192227 24.07706223 21.81636586 26.2734375 24 C27.6594965 25.38737941 29.0449356 26.77537847 30.4296875 28.1640625 C31.08895233 28.81927887 31.74821716 29.47449524 32.42745972 30.14956665 C33.02873688 30.75714813 33.63001404 31.36472961 34.24951172 31.99072266 C34.78212616 32.52492828 35.3147406 33.05913391 35.86349487 33.60952759 C37 35 37 35 37 37 C37.66 37 38.32 37 39 37 C40.30688477 38.33251953 40.30688477 38.33251953 41.87890625 40.2578125 C44.99629014 43.92560823 48.2889369 47.36447847 51.71484375 50.7421875 C52.21915924 51.24083313 52.72347473 51.73947876 53.24307251 52.25323486 C55.34388848 54.32700525 57.44887111 56.39645732 59.55786133 58.46191406 C61.11449651 59.98853669 62.66500464 61.52117047 64.21484375 63.0546875 C65.13386475 63.95687012 66.05288574 64.85905273 66.99975586 65.78857422 C69 68 69 68 69 70 C67.35 69.34 65.7 68.68 64 68 C64 67.34 64 66.68 64 66 C63.34 66 62.68 66 62 66 C60.59643555 64.57519531 60.59643555 64.57519531 58.94921875 62.578125 C54.81225386 57.7136286 50.34992984 53.23880116 45.8125 48.75 C45.01908203 47.96109375 44.22566406 47.1721875 43.40820312 46.359375 C41.93842585 44.89823621 40.46761395 43.43813677 38.99536133 41.97949219 C38.33689209 41.32625977 37.67842285 40.67302734 37 40 C36.29327148 39.2992334 35.58654297 38.5984668 34.85839844 37.87646484 C32.3167456 35.31010334 30.01721136 32.55929181 27.68359375 29.8046875 C25.93233959 27.78876903 25.93233959 27.78876903 23 26 C23 25.34 23 24.68 23 24 C22.34 24 21.68 24 21 24 C19.765625 22.7421875 19.765625 22.7421875 18.25 20.875 C14.01454144 15.85385937 9.34070942 11.31293511 4.62402344 6.74951172 C4.02750977 6.16443848 3.43099609 5.57936523 2.81640625 4.9765625 C2.27443604 4.45143066 1.73246582 3.92629883 1.17407227 3.38525391 C0 2 0 2 0 0 Z " fill="#D4A4F9" transform="translate(543,508)"/>
<path d="M0 0 C0.66 0.33 1.32 0.66 2 1 C-0.2192879 3.4466537 -2.45209242 5.88057308 -4.6875 8.3125 C-5.31333984 9.00279297 -5.93917969 9.69308594 -6.58398438 10.40429688 C-9.84524243 13.93874932 -12.73525377 16.68527735 -17 19 C-18.69286779 20.52603257 -18.69286779 20.52603257 -20.125 22.125 C-22.20973082 24.39003187 -22.94851325 24.98283775 -26 26 C-27.55494734 27.6569111 -28.90909661 29.41878526 -30.3046875 31.2109375 C-32.3239677 33.34188296 -34.47354936 34.50693019 -37 36 C-39.05338013 37.64054549 -41.06684917 39.29302822 -43.0625 41 C-52.48602941 49 -52.48602941 49 -55 49 C-55.474375 49.825 -55.94875 50.65 -56.4375 51.5 C-56.953125 52.325 -57.46875 53.15 -58 54 C-58.99 54 -59.98 54 -61 54 C-60.38479725 50.00118212 -58.39731331 47.19641774 -56 44 C-55.34 44 -54.68 44 -54 44 C-53.67 43.01 -53.34 42.02 -53 41 C-52.34 41 -51.68 41 -51 41 C-51 40.34 -51 39.68 -51 39 C-50.34 39.33 -49.68 39.66 -49 40 C-44.71163654 40 -42.73472109 37.47371474 -39.6875 34.75 C-38.42599702 33.64428504 -37.16427193 32.53882342 -35.90234375 31.43359375 C-34.93337158 30.57870361 -34.93337158 30.57870361 -33.94482422 29.70654297 C-31.49085104 27.55323234 -29.00759037 25.43581606 -26.52124023 23.32006836 C-21.02700394 18.64371976 -15.60941835 13.89521731 -10.265625 9.046875 C-6.88076288 5.98882715 -3.44363278 2.99153574 0 0 Z M-51 42 C-50.67 42.66 -50.34 43.32 -50 44 C-49.34 43.34 -48.68 42.68 -48 42 C-48.99 42 -49.98 42 -51 42 Z M-53 44 C-53 47 -53 47 -53 47 Z " fill="#7C3DF5" transform="translate(440,447)"/>
<path d="M0 0 C1.32 0.33 2.64 0.66 4 1 C4 1.66 4 2.32 4 3 C4.66 3 5.32 3 6 3 C7.42663574 4.44787598 7.42663574 4.44787598 9.09179688 6.46289062 C13.01873331 11.07783888 17.22472599 15.33479658 21.53125 19.59375 C22.32599731 20.38471069 23.12074463 21.17567139 23.9395752 21.99060059 C26.45728432 24.49619523 28.97821446 26.99850858 31.5 29.5 C34.82588189 32.7991168 38.14832336 36.10164374 41.46875 39.40625 C42.21999146 40.14919312 42.97123291 40.89213623 43.74523926 41.65759277 C47.82939569 45.72295039 51.73390132 49.87563981 55.47570801 54.25915527 C56.92298082 55.91203888 58.42840646 57.46580783 60 59 C59.67 59.99 59.34 60.98 59 62 C57.29115995 60.37660195 55.62553283 58.70680947 54 57 C54 56.34 54 55.68 54 55 C53.40058594 54.73960937 52.80117188 54.47921875 52.18359375 54.2109375 C49.85061626 52.91715749 48.70222219 51.70531236 47.0625 49.625 C44.61495199 46.64243522 42.02478684 44.40431775 39 42 C38.08296391 40.95574504 37.18752112 39.89220443 36.3125 38.8125 C34.30609749 35.98352767 34.30609749 35.98352767 32 35 C32 34.34 32 33.68 32 33 C31.34 33 30.68 33 30 33 C28.5546875 31.53125 28.5546875 31.53125 26.875 29.5 C23.13313308 25.09551082 19.12310005 21.04497816 15 17 C13.33333333 15.33333333 11.66666667 13.66666667 10 12 C9.401875 11.443125 8.80375 10.88625 8.1875 10.3125 C7 9 7 9 7 7 C6.401875 6.731875 5.80375 6.46375 5.1875 6.1875 C3.00152146 5.00082594 1.58667406 3.90400887 0 2 C0 1.34 0 0.68 0 0 Z " fill="#E1B6F9" transform="translate(611,578)"/>
<path d="M0 0 C0.99 0.495 0.99 0.495 2 1 C-2.30007471 6.46225707 -7.06236885 10.67313275 -12.51171875 14.984375 C-14.94709014 16.87394102 -14.94709014 16.87394102 -16.70703125 18.765625 C-18 20 -18 20 -20 20 C-20 20.66 -20 21.32 -20 22 C-22.1729233 23.84847311 -24.35402668 25.5921349 -26.625 27.3125 C-27.86785997 28.26605123 -29.11005302 29.22047237 -30.3515625 30.17578125 C-30.96193359 30.64483887 -31.57230469 31.11389648 -32.20117188 31.59716797 C-35.70041459 34.32608337 -39.10918441 37.10918441 -42.25 40.25 C-49.16864845 47.16864845 -56.67997401 53.51099146 -64 60 C-64.66 59.67 -65.32 59.34 -66 59 C-61.07822165 53.03463541 -55.84368278 48.05366568 -49.7890625 43.25 C-47.10281631 41.08294425 -44.54674185 38.82844969 -42 36.5 C-37.70008209 32.58108748 -33.24080453 28.90829131 -28.71875 25.25 C-25.22871117 22.361692 -21.89686481 19.31819246 -18.55078125 16.265625 C-14.98282372 13.09653562 -11.27308279 10.1159006 -7.54296875 7.140625 C-4.87336619 4.89340195 -2.43347161 2.49900496 0 0 Z " fill="#B36AF7" transform="translate(573,332)"/>
<path d="M0 0 C-2 2 -2 2 -4.5625 2.5 C-5.366875 2.665 -6.17125 2.83 -7 3 C-8.50791956 6.01583912 -8.57653859 9.24848506 -8.9375 12.5625 C-9.06499634 13.68313843 -9.06499634 13.68313843 -9.19506836 14.82641602 C-9.46698331 17.21722008 -9.73406706 19.6085236 -10 22 C-10.34987363 25.14633653 -10.70463997 28.29206298 -11.0625 31.4375 C-11.14169678 32.16461182 -11.22089355 32.89172363 -11.30249023 33.64086914 C-11.88719819 38.77439638 -11.88719819 38.77439638 -13 41 C-13.20560807 43.33022478 -13.36599952 45.66456298 -13.5 48 C-13.88888889 54.77777778 -13.88888889 54.77777778 -15 57 C-15 57.825 -15 58.65 -15 59.5 C-15 62 -15 62 -16 64 C-16.23029956 66.37123246 -16.41119942 68.74741943 -16.5625 71.125 C-16.64628906 72.40632813 -16.73007812 73.68765625 -16.81640625 75.0078125 C-16.87699219 75.99523437 -16.93757813 76.98265625 -17 78 C-17.33 78 -17.66 78 -18 78 C-19.33831779 69.96190948 -18.48393379 62.58046304 -17.41796875 54.55078125 C-17.24122147 53.16563776 -17.06523515 51.78039698 -16.88996887 50.39506531 C-16.5223365 47.5071935 -16.14761679 44.62036349 -15.76733398 41.73413086 C-15.28183722 38.04716995 -14.81111583 34.35851036 -14.34528637 30.66901875 C-13.98372384 27.81414543 -13.61594451 24.96010074 -13.24614906 22.10628319 C-13.07040575 20.74660129 -12.89619548 19.38672027 -12.72359276 18.02663612 C-12.48088415 16.12415258 -12.22925849 14.22281315 -11.97729492 12.3215332 C-11.8366008 11.24281448 -11.69590668 10.16409576 -11.5509491 9.0526886 C-10.98140532 5.89697096 -10.08612908 3.01331848 -9 0 C-5.62182575 -0.84454356 -3.32534757 -1.10844919 0 0 Z " fill="#9538F2" transform="translate(385,320)"/>
<path d="M0 0 C0 3 0 3 -1.14453125 4.5078125 C-4.62825536 7.88547475 -8.21509107 11.02438924 -12 14.0625 C-16.70571749 17.84388013 -21.11682558 21.85058011 -25.5 26 C-31.4526493 31.6329321 -37.5523764 36.93305256 -44 42 C-44.33 41.34 -44.66 40.68 -45 40 C-43.33333333 38.33333333 -41.66666667 36.66666667 -40 35 C-39.360625 34.34 -38.72125 33.68 -38.0625 33 C-35.49729075 30.51252436 -32.74447019 28.28705849 -30 26 C-29.06994141 25.05447266 -29.06994141 25.05447266 -28.12109375 24.08984375 C-25.88549268 21.88717971 -23.53865013 19.9892424 -21.0625 18.0625 C-17.46709974 15.21767235 -14.20184882 12.286108 -11 9 C-7.4599732 5.78307089 -3.98404406 2.65602937 0 0 Z " fill="#EAC3F9" transform="translate(695,328)"/>
<path d="M0 0 C5.64893617 4.39361702 5.64893617 4.39361702 7.375 7.375 C9.49158013 10.79409097 12.25372198 12.9287002 15.35546875 15.44921875 C15.89816406 15.96097656 16.44085937 16.47273437 17 17 C17 17.66 17 18.32 17 19 C17.66 19 18.32 19 19 19 C19 19.99 19 20.98 19 22 C19.5775 22.2475 20.155 22.495 20.75 22.75 C24.48597363 24.82554091 26.64391315 26.93173944 28 31 C31.96 31 35.92 31 40 31 C40 31.66 40 32.32 40 33 C42.64 33 45.28 33 48 33 C48 33.33 48 33.66 48 34 C44.91684615 34.08733513 41.83401173 34.14050127 38.75 34.1875 C37.87730469 34.21263672 37.00460937 34.23777344 36.10546875 34.26367188 C29.63555009 34.33775491 29.63555009 34.33775491 26.390625 32.61328125 C25 31 25 31 25 29 C24.34 29 23.68 29 23 29 C21.4921875 27.5390625 21.4921875 27.5390625 19.875 25.625 C19.33617187 24.99851562 18.79734375 24.37203125 18.2421875 23.7265625 C17 22 17 22 17 20 C16.34 20 15.68 20 15 20 C13.30859375 18.35546875 13.30859375 18.35546875 11.4375 16.1875 C10.81746094 15.47980469 10.19742188 14.77210938 9.55859375 14.04296875 C8 12 8 12 7 9 C6.34 9 5.68 9 5 9 C3.4921875 7.25 3.4921875 7.25 1.875 5 C1.33617187 4.2575 0.79734375 3.515 0.2421875 2.75 C-0.37269531 1.88375 -0.37269531 1.88375 -1 1 C-0.67 0.67 -0.34 0.34 0 0 Z " fill="#B17CF3" transform="translate(528,608)"/>
<path d="M0 0 C0.66 0.66 1.32 1.32 2 2 C-3.03634471 6.62120133 -8.11708573 11.14437033 -13.4375 15.4375 C-17.3119254 18.56768549 -21.02675843 21.80990971 -24.6875 25.1875 C-28.93195701 29.09654733 -33.2846186 32.67626411 -38 36 C-38 32 -38 32 -35.8828125 29.859375 C-34.97273437 29.16328125 -34.06265625 28.4671875 -33.125 27.75 C-32.22007812 27.04359375 -31.31515625 26.3371875 -30.3828125 25.609375 C-28 24 -28 24 -26 24 C-26 23.34 -26 22.68 -26 22 C-25.34 22 -24.68 22 -24 22 C-24 21.34 -24 20.68 -24 20 C-22.42638552 18.60639308 -20.79004275 17.28297912 -19.125 16 C-15.43096483 13.14925117 -15.43096483 13.14925117 -12 10 C-8.09116337 6.55392237 -4.09332098 3.22504078 0 0 Z " fill="#BB7EFA" transform="translate(566,440)"/>
<path d="M0 0 C5.445 0.495 5.445 0.495 11 1 C10.52279768 10.78264757 9.70426788 20.33696657 8 30 C7.34 29.67 6.68 29.34 6 29 C6.33 24.38 6.66 19.76 7 15 C7.66 15 8.32 15 9 15 C8.814375 13.9275 8.62875 12.855 8.4375 11.75 C8.05606253 8.48053594 8.10197515 7.00672022 9 4 C7.10894531 4.01740234 7.10894531 4.01740234 5.1796875 4.03515625 C-7.90971573 4.11591609 -20.93065496 3.71146283 -34 3 C-34 2.67 -34 2.34 -34 2 C-22.78 2 -11.56 2 0 2 C0 1.34 0 0.68 0 0 Z " fill="#B450F8" transform="translate(462,319)"/>
<path d="M0 0 C0 0.33 0 0.66 0 1 C-4.99781622 1.82324599 -9.72938265 2.10811122 -14.8125 2.0625 C-16.11832031 2.05347656 -17.42414062 2.04445313 -18.76953125 2.03515625 C-20.36861328 2.01775391 -20.36861328 2.01775391 -22 2 C-25.16486839 2 -26.48094926 4.08003317 -28.75 6.1875 C-32.42636301 9.56549151 -36.13209727 12.84460567 -40 16 C-40.66 15.67 -41.32 15.34 -42 15 C-39.77320392 12.22756514 -37.417721 9.60708713 -35 7 C-34.34386719 6.236875 -33.68773437 5.47375 -33.01171875 4.6875 C-24.53233445 -3.74670108 -11.04013633 -2.70881696 0 0 Z " fill="#D4A2F8" transform="translate(614,320)"/>
<path d="M0 0 C5.1378446 3.13940976 9.15377373 6.89125067 13.3671875 11.171875 C14.04677521 11.8542926 14.72636292 12.53671021 15.42654419 13.23980713 C17.58079945 15.40519349 19.72796792 17.57745386 21.875 19.75 C23.34068216 21.22572108 24.80682329 22.70098646 26.2734375 24.17578125 C29.85429166 27.77860194 33.42880964 31.38760116 37 35 C36.505 35.99 36.505 35.99 36 37 C31.5180602 33.98330975 28.26759613 31.35679484 25 27 C24.34 26.67 23.68 26.34 23 26 C23 25.34 23 24.68 23 24 C22.34 24 21.68 24 21 24 C19.765625 22.7421875 19.765625 22.7421875 18.25 20.875 C14.01454144 15.85385937 9.34070942 11.31293511 4.62402344 6.74951172 C4.02750977 6.16443848 3.43099609 5.57936523 2.81640625 4.9765625 C2.27443604 4.45143066 1.73246582 3.92629883 1.17407227 3.38525391 C0 2 0 2 0 0 Z " fill="#C48DF9" transform="translate(543,508)"/>
<path d="M0 0 C0.33 0 0.66 0 1 0 C1.82922663 14.41932979 -0.47548025 28.48119303 -2.55029297 42.70654297 C-2.94350906 45.5862851 -3.24382836 48.45364667 -3.50390625 51.34765625 C-3.66761719 52.55292969 -3.83132813 53.75820313 -4 55 C-4.99 55.495 -4.99 55.495 -6 56 C-3.03751649 18.54823897 -3.03751649 18.54823897 0 0 Z " fill="#733AF4" transform="translate(354,485)"/>
<path d="M0 0 C0 0.99 0 1.98 0 3 C-2.01972962 4.91031528 -4.02165143 6.64605939 -6.1875 8.375 C-10.34373914 11.74817959 -14.24353099 15.17216457 -18 19 C-20 20.66666667 -22 22.33333333 -24 24 C-26.45238053 26.39399051 -28.81539022 28.78741904 -31.0625 31.375 C-32.0215625 32.179375 -32.0215625 32.179375 -33 33 C-35.12109375 32.6015625 -35.12109375 32.6015625 -37 32 C-30.06006614 25.47933082 -23.0765005 19.13486057 -15.64453125 13.171875 C-12.01179231 10.18841436 -8.55176278 7.03059983 -5.09375 3.84765625 C-3 2 -3 2 0 0 Z " fill="#9A50F4" transform="translate(487,407)"/>
<path d="M0 0 C1.06734375 0.0009668 1.06734375 0.0009668 2.15625 0.00195312 C5.59732386 0.03084274 8.69030209 0.25763249 12 1.1875 C13.66842534 0.86308396 15.33480481 0.52810811 17 0.1875 C21.48246656 -0.05848902 25.61980613 0.15008566 30 1.1875 C31.99897128 1.52694795 33.99875639 1.86171616 36 2.1875 C36 2.5175 36 2.8475 36 3.1875 C30.44987305 3.21234561 24.89977898 3.23042868 19.34960938 3.24243164 C17.46418697 3.24743919 15.5787684 3.25424715 13.69335938 3.26293945 C10.97264656 3.27516253 8.2519854 3.28076424 5.53125 3.28515625 C4.28075867 3.29289818 4.28075867 3.29289818 3.00500488 3.30079651 C-2.08707816 3.30127714 -6.95937477 2.91879553 -12 2.1875 C-8.20995308 -0.3095882 -4.37030295 -0.07521355 0 0 Z " fill="#C594F5" transform="translate(580,638.8125)"/>
<path d="M0 0 C14.52 0 29.04 0 44 0 C43.67 0.99 43.34 1.98 43 3 C27.16 3 11.32 3 -5 3 C-5 2.67 -5 2.34 -5 2 C-3.35 1.67 -1.7 1.34 0 1 C0 0.67 0 0.34 0 0 Z " fill="#E7BAFD" transform="translate(613,319)"/>
<path d="M0 0 C0.66 0 1.32 0 2 0 C1.63653002 8.97394853 0.90377652 17.85073366 -0.3125 26.75 C-0.41796143 27.6069043 -0.52342285 28.46380859 -0.63208008 29.34667969 C-1.32567375 34.11769143 -1.94077864 36.9534916 -6 40 C-5.34 36.7 -4.68 33.4 -4 30 C-3.34 30 -2.68 30 -2 30 C-2.33 29.34 -2.66 28.68 -3 28 C-2.96156542 25.52244786 -2.85804035 23.09399153 -2.6875 20.625 C-2.64117432 19.9134375 -2.59484863 19.201875 -2.54711914 18.46875 C-2.0998463 12.23902788 -1.19597454 6.13082092 0 0 Z " fill="#AC56F6" transform="translate(465,367)"/>
<path d="M0 0 C0.99 0.33 1.98 0.66 3 1 C-2.99602186 6.50177277 -9.11297403 11.79335255 -15.4375 16.9140625 C-18.67739086 19.55141268 -21.84317799 22.26408759 -25 25 C-25.33 24.01 -25.66 23.02 -26 22 C-25.236875 21.401875 -24.47375 20.80375 -23.6875 20.1875 C-21.15679788 18.21108248 -21.15679788 18.21108248 -19.66015625 16.6328125 C-16.5876399 13.6109023 -13.14588067 11.00745118 -9.796875 8.30078125 C-7.46555679 6.38297898 -5.22887612 4.40861134 -3 2.375 C-2.01 1.59125 -1.02 0.8075 0 0 Z " fill="#C891F8" transform="translate(594,416)"/>
<path d="M0 0 C0 4.12937292 -2.21529976 5.69537672 -4.9375 8.5 C-9.46904896 13.29479853 -13.711773 18.23388957 -17.8515625 23.375 C-21.11241482 27.35916865 -24.54343471 31.18553422 -28 35 C-28.495 33.515 -28.495 33.515 -29 32 C-28.01 31.34 -27.02 30.68 -26 30 C-24.97963189 28.34572472 -23.98193636 26.67737258 -23 25 C-21.68571466 23.36299905 -20.33075275 21.75783908 -18.9375 20.1875 C-18.24527344 19.39730469 -17.55304688 18.60710937 -16.83984375 17.79296875 C-15 16 -15 16 -13 16 C-12.7525 15.4225 -12.505 14.845 -12.25 14.25 C-10.82711157 11.68880083 -9.0666952 10.0666952 -7 8 C-6.505 7.154375 -6.01 6.30875 -5.5 5.4375 C-3.93674832 2.89721601 -2.47287677 1.62016064 0 0 Z " fill="#843EF5" transform="translate(425,445)"/>
<path d="M0 0 C0.66 0.33 1.32 0.66 2 1 C-2.30007471 6.46225707 -7.06236885 10.67313275 -12.51171875 14.984375 C-14.94709014 16.87394102 -14.94709014 16.87394102 -16.70703125 18.765625 C-18 20 -18 20 -20 20 C-20 20.66 -20 21.32 -20 22 C-21.53125 23.5078125 -21.53125 23.5078125 -23.5 25.125 C-24.1496875 25.66382813 -24.799375 26.20265625 -25.46875 26.7578125 C-25.9740625 27.16773438 -26.479375 27.57765625 -27 28 C-27.66 27.67 -28.32 27.34 -29 27 C-24.83873907 21.71407396 -20.29032102 17.6736188 -15.03515625 13.48828125 C-9.82282206 9.21510637 -4.92492951 4.59831988 0 0 Z " fill="#C385F7" transform="translate(573,332)"/>
<path d="M0 0 C0.33 0 0.66 0 1 0 C0.85919445 2.77117304 0.71256882 5.54182641 0.5625 8.3125 C0.52318359 9.09818359 0.48386719 9.88386719 0.44335938 10.69335938 C0.40146484 11.45068359 0.35957031 12.20800781 0.31640625 12.98828125 C0.27974854 13.68477783 0.24309082 14.38127441 0.20532227 15.09887695 C0 17 0 17 -1 20 C-6.52708611 20.94220126 -11.83758352 21.12116149 -17.4375 21.0625 C-18.26443359 21.05798828 -19.09136719 21.05347656 -19.94335938 21.04882812 C-21.96227146 21.03715811 -23.98114574 21.01922718 -26 21 C-25.505 19.515 -25.505 19.515 -25 18 C-24.40461426 18.00523682 -23.80922852 18.01047363 -23.19580078 18.01586914 C-20.50554453 18.03661999 -17.81530511 18.04965407 -15.125 18.0625 C-14.18785156 18.07087891 -13.25070312 18.07925781 -12.28515625 18.08789062 C-11.38925781 18.09111328 -10.49335938 18.09433594 -9.5703125 18.09765625 C-8.74289551 18.10289307 -7.91547852 18.10812988 -7.06298828 18.11352539 C-4.93588243 18.13352138 -4.93588243 18.13352138 -3 17 C-2.36087308 14.13565596 -1.83055456 11.33120119 -1.375 8.4375 C-1.2409375 7.63119141 -1.106875 6.82488281 -0.96875 5.99414062 C-0.63792701 3.9973876 -0.31794962 1.9988433 0 0 Z " fill="#6D46F1" transform="translate(431,621)"/>
<path d="M0 0 C0.66 0.33 1.32 0.66 2 1 C-0.2192879 3.4466537 -2.45209242 5.88057308 -4.6875 8.3125 C-5.31333984 9.00279297 -5.93917969 9.69308594 -6.58398438 10.40429688 C-9.84467846 13.93813811 -12.73385382 16.68917082 -17 19 C-18.79521298 20.55745537 -18.79521298 20.55745537 -20.3125 22.1875 C-21.199375 23.115625 -22.08625 24.04375 -23 25 C-23.66 24.67 -24.32 24.34 -25 24 C-19.65555465 17.67903872 -14.11124075 12.19633234 -7.578125 7.10546875 C-4.86721558 4.89155939 -2.43597243 2.5104536 0 0 Z " fill="#8B44F7" transform="translate(440,447)"/>
<path d="M0 0 C8.33333333 8.33333333 16.66666667 16.66666667 25 25 C24.67 25.66 24.34 26.32 24 27 C17.86180727 22.5459826 12.77673567 17.88455716 8 12 C4.96763473 7.95484469 4.96763473 7.95484469 1 5 C0.375 2.4375 0.375 2.4375 0 0 Z " fill="#B67AF8" transform="translate(521,483)"/>
<path d="M0 0 C0.66 0.66 1.32 1.32 2 2 C-17.23688969 20 -17.23688969 20 -22 20 C-22 19.34 -22 18.68 -22 18 C-20.48828125 16.66015625 -20.48828125 16.66015625 -18.3125 15.0625 C-14.06588467 11.86057917 -9.98557226 8.50871924 -5.9375 5.0625 C-5.35331299 4.56564697 -4.76912598 4.06879395 -4.16723633 3.55688477 C-2.77691148 2.37271796 -1.38827063 1.18657443 0 0 Z " fill="#E0B3F8" transform="translate(648,369)"/>
<path d="M0 0 C1.36363845 2.72727691 0.83805813 4.4307582 0.44140625 7.4453125 C0.30283203 8.52167969 0.16425781 9.59804688 0.02148438 10.70703125 C-0.12998047 11.83496094 -0.28144531 12.96289062 -0.4375 14.125 C-0.58509766 15.26066406 -0.73269531 16.39632812 -0.88476562 17.56640625 C-1.25102973 20.37836939 -1.62300697 23.18945849 -2 26 C-2.33 26 -2.66 26 -3 26 C-3.90452141 20.29060951 -3.97543138 15.3388425 -3.1875 9.625 C-3.10435547 8.91472656 -3.02121094 8.20445312 -2.93554688 7.47265625 C-2.25770174 2.25770174 -2.25770174 2.25770174 0 0 Z " fill="#764CF6" transform="translate(435,594)"/>
<path d="M0 0 C0.66 0 1.32 0 2 0 C1.50610812 8.78607656 0.63177319 17.35001785 -1 26 C-1.66 26 -2.32 26 -3 26 C-3 24.02 -3 22.04 -3 20 C-2.34 20 -1.68 20 -1 20 C-1.20625 18.700625 -1.4125 17.40125 -1.625 16.0625 C-2.13262617 11.66770902 -1.60488905 8.09915293 -0.47265625 3.84765625 C0.08261108 1.99492482 0.08261108 1.99492482 0 0 Z " fill="#7849F7" transform="translate(438,559)"/>
<path d="M0 0 C0.66 0.33 1.32 0.66 2 1 C-2.32893185 6.18419194 -6.76564995 10.72706118 -12 15 C-12.66 14.67 -13.32 14.34 -14 14 C-9.67106815 8.81580806 -5.23435005 4.27293882 0 0 Z " fill="#CD92F9" transform="translate(586,321)"/>
<path d="M0 0 C0 0.99 0 1.98 0 3 C-2.265625 5.15625 -2.265625 5.15625 -5.25 7.5 C-6.22453125 8.2734375 -7.1990625 9.046875 -8.203125 9.84375 C-10.45606104 11.58065041 -12.71645641 13.30365333 -15 15 C-15 11 -15 11 -12.8828125 8.859375 C-11.51769531 7.81523437 -11.51769531 7.81523437 -10.125 6.75 C-9.22007812 6.04359375 -8.31515625 5.3371875 -7.3828125 4.609375 C-5 3 -5 3 -3 3 C-3 2.34 -3 1.68 -3 1 C-2.01 0.67 -1.02 0.34 0 0 Z " fill="#B173F8" transform="translate(543,461)"/>
<path d="M0 0 C2.79173055 -0.02690104 5.58320348 -0.04679053 8.375 -0.0625 C9.56609375 -0.07506836 9.56609375 -0.07506836 10.78125 -0.08789062 C16.7734375 -0.11328125 16.7734375 -0.11328125 19 1 C19 1.66 19 2.32 19 3 C11.08 3 3.16 3 -5 3 C-5 2.67 -5 2.34 -5 2 C-3.35 1.67 -1.7 1.34 0 1 C0 0.67 0 0.34 0 0 Z " fill="#E0AEFC" transform="translate(613,319)"/>
<path d="M0 0 C0.99 0.33 1.98 0.66 3 1 C1.39801112 2.46072532 -0.20667116 3.91849716 -1.8125 5.375 C-2.70582031 6.18710937 -3.59914063 6.99921875 -4.51953125 7.8359375 C-7 10 -7 10 -10 12 C-10.99 11.67 -11.98 11.34 -13 11 C-11.71034824 9.62437146 -10.37310707 8.29233607 -9 7 C-8.34 7 -7.68 7 -7 7 C-7 6.34 -7 5.68 -7 5 C-5.57421875 3.67578125 -5.57421875 3.67578125 -3.6875 2.3125 C-3.07261719 1.85488281 -2.45773437 1.39726562 -1.82421875 0.92578125 C-0.92123047 0.46751953 -0.92123047 0.46751953 0 0 Z " fill="#CF9AF9" transform="translate(608,404)"/>
<path d="M0 0 C0.66 0.33 1.32 0.66 2 1 C-1.30059767 4.40061579 -4.73253028 7.51621554 -8.3515625 10.57421875 C-10.33435999 12.28919762 -12.18342059 14.11075741 -14 16 C-14.66 15.34 -15.32 14.68 -16 14 C-15.55084229 13.61142822 -15.10168457 13.22285645 -14.63891602 12.82250977 C-12.61310199 11.06956798 -10.58779476 9.3160417 -8.5625 7.5625 C-7.85544922 6.95083984 -7.14839844 6.33917969 -6.41992188 5.70898438 C-5.74638672 5.12568359 -5.07285156 4.54238281 -4.37890625 3.94140625 C-3.44413452 3.13231812 -3.44413452 3.13231812 -2.49047852 2.30688477 C-1.63964878 1.5608583 -0.80014584 0.80014584 0 0 Z " fill="#B975F5" transform="translate(543,358)"/>
<path d="M0 0 C0.94488281 -0.00257813 1.88976562 -0.00515625 2.86328125 -0.0078125 C5.58325424 0.12009771 8.03535093 0.53024896 10.6875 1.125 C12.68647128 1.46444795 14.68625639 1.79921616 16.6875 2.125 C16.6875 2.455 16.6875 2.785 16.6875 3.125 C13.25007082 3.18302698 9.81276747 3.21860486 6.375 3.25 C5.39853516 3.26675781 4.42207031 3.28351562 3.41601562 3.30078125 C2.47822266 3.30722656 1.54042969 3.31367187 0.57421875 3.3203125 C-0.28985596 3.33078613 -1.15393066 3.34125977 -2.04418945 3.35205078 C-4.3125 3.125 -4.3125 3.125 -7.3125 1.125 C-4.74519226 -0.15865387 -2.86597003 -0.00775635 0 0 Z " fill="#CEA1F5" transform="translate(599.3125,638.875)"/>
<path d="M0 0 C5.11136723 3.65838974 9.66297078 7.44611932 14 12 C13.67 12.99 13.34 13.98 13 15 C11.29115995 13.37660195 9.62553283 11.70680947 8 10 C8 9.34 8 8.68 8 8 C7.4225 7.7525 6.845 7.505 6.25 7.25 C3.67060021 5.81700012 1.93878408 4.21575324 0 2 C0 1.34 0 0.68 0 0 Z " fill="#E8C1F7" transform="translate(657,625)"/>
<path d="M0 0 C0.99 0.33 1.98 0.66 3 1 C-3.435 6.94 -3.435 6.94 -10 13 C-10.66 12.67 -11.32 12.34 -12 12 C-11.34 11.01 -10.68 10.02 -10 9 C-9.34 9 -8.68 9 -8 9 C-7.71125 8.38125 -7.4225 7.7625 -7.125 7.125 C-6 5 -6 5 -4 3 C-3.01 3 -2.02 3 -1 3 C-0.67 2.01 -0.34 1.02 0 0 Z " fill="#834FF6" transform="translate(456,532)"/>
<path d="M0 0 C0.99 0.33 1.98 0.66 3 1 C-0.96 4.3 -4.92 7.6 -9 11 C-9.33 10.01 -9.66 9.02 -10 8 C-9.236875 7.401875 -8.47375 6.80375 -7.6875 6.1875 C-5.09990326 4.1572945 -5.09990326 4.1572945 -3.3125 2.3125 C-2 1 -2 1 0 0 Z " fill="#C188F9" transform="translate(578,430)"/>
<path d="M0 0 C0.66 0 1.32 0 2 0 C2 2.64 2 5.28 2 8 C1.34 8 0.68 8 0 8 C-0.33 12.29 -0.66 16.58 -1 21 C-1.33 21 -1.66 21 -2 21 C-2.24091535 13.7725395 -1.34495828 7.09705662 0 0 Z " fill="#B75AFA" transform="translate(465,367)"/>
<path d="M0 0 C3.3 0 6.6 0 10 0 C10 0.66 10 1.32 10 2 C12.64 2 15.28 2 18 2 C18 2.33 18 2.66 18 3 C15.56183415 3.0809723 13.12635616 3.14046972 10.6875 3.1875 C9.65206055 3.22520508 9.65206055 3.22520508 8.59570312 3.26367188 C6.57421875 3.29296875 6.57421875 3.29296875 3 3 C2.01 2.01 1.02 1.02 0 0 Z " fill="#BB89F3" transform="translate(558,639)"/>
<path d="M0 0 C4 4 8 8 12 12 C11.01 12.33 10.02 12.66 9 13 C8.59007812 12.50628906 8.18015625 12.01257813 7.7578125 11.50390625 C7.21898437 10.86324219 6.68015625 10.22257812 6.125 9.5625 C5.59132813 8.92441406 5.05765625 8.28632813 4.5078125 7.62890625 C3.0777243 5.89194996 3.0777243 5.89194996 1 5 C0.375 2.4375 0.375 2.4375 0 0 Z " fill="#AD6EF8" transform="translate(521,483)"/>
<path d="M0 0 C0.66 0 1.32 0 2 0 C2.09038099 5.15171623 1.84681133 9.91913204 1 15 C-1.42945561 11.35581659 -1.0828781 10.07076636 -0.625 5.8125 C-0.51414062 4.72582031 -0.40328125 3.63914062 -0.2890625 2.51953125 C-0.19367188 1.68808594 -0.09828125 0.85664063 0 0 Z " fill="#B55BF8" transform="translate(467,352)"/>
<path d="M0 0 C0.99 0.99 1.98 1.98 3 3 C-0.61867559 4.2062252 -3.92506251 4.10816918 -7.6875 4.0625 C-8.38939453 4.05798828 -9.09128906 4.05347656 -9.81445312 4.04882812 C-11.54300538 4.03706927 -13.27151365 4.01913454 -15 4 C-15 3.67 -15 3.34 -15 3 C-10.05 2.67 -5.1 2.34 0 2 C0 1.34 0 0.68 0 0 Z " fill="#C8A8E1" transform="translate(671,638)"/>
<path d="M0 0 C0.33 0 0.66 0 1 0 C2.33257403 10.55808656 2.33257403 10.55808656 1 15 C0.34 14.67 -0.32 14.34 -1 14 C-0.67 9.38 -0.34 4.76 0 0 Z " fill="#BA5BF9" transform="translate(469,334)"/>
<path d="M0 0 C1.1055189 0.93590504 2.20935453 1.87379858 3.3125 2.8125 C3.92738281 3.33457031 4.54226563 3.85664062 5.17578125 4.39453125 C6.85424679 5.87172469 8.43882034 7.40039131 10 9 C9.67 9.66 9.34 10.32 9 11 C5.43279004 8.32459253 2.58873576 5.64340588 0 2 C0 1.34 0 0.68 0 0 Z " fill="#D3AFF1" transform="translate(651,617)"/>
<path d="M0 0 C0.99 0 1.98 0 3 0 C3.268125 0.61875 3.53625 1.2375 3.8125 1.875 C4.95556848 4.2995233 4.95556848 4.2995233 8 6 C7.67 6.99 7.34 7.98 7 9 C5.82737096 7.88121617 4.66204862 6.75476949 3.5 5.625 C2.8503125 4.99851562 2.200625 4.37203125 1.53125 3.7265625 C0 2 0 2 0 0 Z " fill="#8B52F5" transform="translate(461,535)"/>
<path d="M0 0 C0.33 0.66 0.66 1.32 1 2 C1.61875 2.309375 2.2375 2.61875 2.875 2.9375 C5.05810535 4.02905268 6.37010468 5.20711515 8 7 C7.67 7.66 7.34 8.32 7 9 C5.82460004 8.07347299 4.65989423 7.13336613 3.5 6.1875 C2.52546875 5.40439453 2.52546875 5.40439453 1.53125 4.60546875 C0 3 0 3 0 0 Z " fill="#B075F7" transform="translate(519,598)"/>
<path d="M0 0 C0.99 0.33 1.98 0.66 3 1 C1.35 2.98 -0.3 4.96 -2 7 C-2.66 6.34 -3.32 5.68 -4 5 C-2.68 3.35 -1.36 1.7 0 0 Z " fill="#A651F8" transform="translate(456,407)"/>
<path d="M0 0 C0.66 0.33 1.32 0.66 2 1 C1.01 1.66 0.02 2.32 -1 3 C-0.67 2.01 -0.34 1.02 0 0 Z " fill="#CE9FF5" transform="translate(604,411)"/>
<path d="M0 0 C0.33 0 0.66 0 1 0 C1 1.65 1 3.3 1 5 C0.67 5 0.34 5 0 5 C0 3.35 0 1.7 0 0 Z " fill="#9843EC" transform="translate(368,359)"/>
<path d="M0 0 C0.99 0.33 1.98 0.66 3 1 C2.01 1 1.02 1 0 1 C0 0.67 0 0.34 0 0 Z " fill="#A26DF4" transform="translate(498,580)"/>
<path d="" fill="#8152F5" transform="translate(0,0)"/>
<path d="M0 0 C2 1 2 1 2 1 Z " fill="#AC7AF3" transform="translate(521,605)"/>
<path d="" fill="#A36CF3" transform="translate(0,0)"/>
<path d="M0 0 C2 1 2 1 2 1 Z " fill="#994FF8" transform="translate(436,448)"/>
<path d="M0 0 C2 1 2 1 2 1 Z " fill="#C98DF5" transform="translate(556,344)"/>
<path d="" fill="#6D6A7F" transform="translate(0,0)"/>
<path d="" fill="#6A667F" transform="translate(0,0)"/>
<path d="" fill="#6E6980" transform="translate(0,0)"/>
<path d="" fill="#6C6A7E" transform="translate(0,0)"/>
<path d="" fill="#706B7F" transform="translate(0,0)"/>
<path d="" fill="#6E6980" transform="translate(0,0)"/>
<path d="" fill="#6C677F" transform="translate(0,0)"/>
<path d="" fill="#6C677F" transform="translate(0,0)"/>
<path d="" fill="#6E6D7E" transform="translate(0,0)"/>
<path d="" fill="#6B667F" transform="translate(0,0)"/>
<path d="" fill="#6A647D" transform="translate(0,0)"/>
<path d="" fill="#6B6A7E" transform="translate(0,0)"/>
<path d="" fill="#6D6980" transform="translate(0,0)"/>
<path d="" fill="#6A667F" transform="translate(0,0)"/>
<path d="" fill="#6D6A81" transform="translate(0,0)"/>
<path d="" fill="#6D697F" transform="translate(0,0)"/>
<path d="" fill="#696480" transform="translate(0,0)"/>
<path d="" fill="#6C6981" transform="translate(0,0)"/>
<path d="" fill="#6A667F" transform="translate(0,0)"/>
<path d="" fill="#6A667F" transform="translate(0,0)"/>
<path d="" fill="#6C6B7F" transform="translate(0,0)"/>
<path d="" fill="#6E6A7F" transform="translate(0,0)"/>
<path d="" fill="#6B677F" transform="translate(0,0)"/>
<path d="" fill="#6D6A7F" transform="translate(0,0)"/>
<path d="" fill="#706D7F" transform="translate(0,0)"/>
<path d="" fill="#6F6B80" transform="translate(0,0)"/>
<path d="" fill="#6E697F" transform="translate(0,0)"/>
<path d="" fill="#69657E" transform="translate(0,0)"/>
<path d="" fill="#6D6A7F" transform="translate(0,0)"/>
<path d="" fill="#6F6980" transform="translate(0,0)"/>
<path d="" fill="#6B677F" transform="translate(0,0)"/>
<path d="" fill="#6A677E" transform="translate(0,0)"/>
<path d="" fill="#6E6A80" transform="translate(0,0)"/>
<path d="" fill="#6A677F" transform="translate(0,0)"/>
<path d="" fill="#6D6A80" transform="translate(0,0)"/>
<path d="" fill="#6E697E" transform="translate(0,0)"/>
<path d="" fill="#6E6A80" transform="translate(0,0)"/>
<path d="" fill="#6D6A7F" transform="translate(0,0)"/>
<path d="" fill="#6E6B7F" transform="translate(0,0)"/>
<path d="" fill="#6F6B7F" transform="translate(0,0)"/>
<path d="" fill="#6D6A80" transform="translate(0,0)"/>
<path d="" fill="#6C6880" transform="translate(0,0)"/>
<path d="" fill="#6B6881" transform="translate(0,0)"/>
<path d="" fill="#6B657F" transform="translate(0,0)"/>
<path d="" fill="#68657E" transform="translate(0,0)"/>
<path d="" fill="#6A667E" transform="translate(0,0)"/>
<path d="" fill="#6D6A7E" transform="translate(0,0)"/>
<path d="" fill="#6C697F" transform="translate(0,0)"/>
<path d="" fill="#6B697E" transform="translate(0,0)"/>
<path d="" fill="#6E6A7F" transform="translate(0,0)"/>
<path d="" fill="#6C697E" transform="translate(0,0)"/>
<path d="" fill="#6F6C7F" transform="translate(0,0)"/>
<path d="" fill="#6D6A7E" transform="translate(0,0)"/>
<path d="" fill="#6F6B7E" transform="translate(0,0)"/>
<path d="" fill="#6D6A7F" transform="translate(0,0)"/>
<path d="" fill="#6E6A7F" transform="translate(0,0)"/>
<path d="" fill="#6E6B7E" transform="translate(0,0)"/>
<path d="" fill="#6D6981" transform="translate(0,0)"/>
<path d="" fill="#6E697F" transform="translate(0,0)"/>
<path d="" fill="#6A6780" transform="translate(0,0)"/>
<path d="" fill="#69647F" transform="translate(0,0)"/>
<path d="" fill="#706C7F" transform="translate(0,0)"/>
<path d="" fill="#6E6A7F" transform="translate(0,0)"/>
<path d="" fill="#6C687F" transform="translate(0,0)"/>
<path d="" fill="#67657F" transform="translate(0,0)"/>
<path d="" fill="#6D6A80" transform="translate(0,0)"/>
<path d="" fill="#67647F" transform="translate(0,0)"/>
<path d="" fill="#6E6A7F" transform="translate(0,0)"/>
<path d="" fill="#6D6A7F" transform="translate(0,0)"/>
<path d="" fill="#69657E" transform="translate(0,0)"/>
<path d="" fill="#696580" transform="translate(0,0)"/>
<path d="" fill="#6C6A7F" transform="translate(0,0)"/>
<path d="" fill="#68647F" transform="translate(0,0)"/>
<path d="" fill="#67647F" transform="translate(0,0)"/>
<path d="" fill="#6C697E" transform="translate(0,0)"/>
<path d="" fill="#6B6881" transform="translate(0,0)"/>
<path d="" fill="#6F6B7F" transform="translate(0,0)"/>
<path d="" fill="#6B697E" transform="translate(0,0)"/>
<path d="" fill="#6F6C80" transform="translate(0,0)"/>
<path d="" fill="#6F6B80" transform="translate(0,0)"/>
<path d="" fill="#6C6782" transform="translate(0,0)"/>
<path d="" fill="#666380" transform="translate(0,0)"/>
<path d="" fill="#706E80" transform="translate(0,0)"/>
<path d="" fill="#706B81" transform="translate(0,0)"/>
<path d="" fill="#6E6C7E" transform="translate(0,0)"/>
<path d="" fill="#6D6980" transform="translate(0,0)"/>
<path d="" fill="#6C687F" transform="translate(0,0)"/>
<path d="" fill="#6C687D" transform="translate(0,0)"/>
<path d="" fill="#666381" transform="translate(0,0)"/>
<path d="" fill="#676380" transform="translate(0,0)"/>
<path d="" fill="#676181" transform="translate(0,0)"/>
<path d="" fill="#6D697F" transform="translate(0,0)"/>
<path d="" fill="#6D687F" transform="translate(0,0)"/>
<path d="" fill="#6B677F" transform="translate(0,0)"/>
<path d="" fill="#6A657F" transform="translate(0,0)"/>
<path d="" fill="#696380" transform="translate(0,0)"/>
<path d="" fill="#666180" transform="translate(0,0)"/>
<path d="" fill="#676281" transform="translate(0,0)"/>
<path d="" fill="#67637E" transform="translate(0,0)"/>
<path d="" fill="#68677E" transform="translate(0,0)"/>
<path d="" fill="#6A677D" transform="translate(0,0)"/>
<path d="" fill="#6F6C7F" transform="translate(0,0)"/>
<path d="" fill="#6E6C7F" transform="translate(0,0)"/>
<path d="" fill="#6F6A7F" transform="translate(0,0)"/>
<path d="" fill="#6E6980" transform="translate(0,0)"/>
<path d="" fill="#6D6A7E" transform="translate(0,0)"/>
<path d="" fill="#666280" transform="translate(0,0)"/>
<path d="" fill="#686181" transform="translate(0,0)"/>
<path d="" fill="#656480" transform="translate(0,0)"/>
<path d="" fill="#666180" transform="translate(0,0)"/>
<path d="" fill="#69677E" transform="translate(0,0)"/>
<path d="" fill="#6F6B7F" transform="translate(0,0)"/>
<path d="" fill="#6E6B80" transform="translate(0,0)"/>
<path d="" fill="#6E6A7F" transform="translate(0,0)"/>
<path d="" fill="#6C687F" transform="translate(0,0)"/>
<path d="" fill="#676180" transform="translate(0,0)"/>
<path d="" fill="#66617F" transform="translate(0,0)"/>
<path d="" fill="#696480" transform="translate(0,0)"/>
<path d="" fill="#6D6880" transform="translate(0,0)"/>
<path d="" fill="#706C80" transform="translate(0,0)"/>
<path d="" fill="#6B677F" transform="translate(0,0)"/>
<path d="" fill="#666080" transform="translate(0,0)"/>
<path d="" fill="#656180" transform="translate(0,0)"/>
<path d="" fill="#646081" transform="translate(0,0)"/>
<path d="" fill="#635F81" transform="translate(0,0)"/>
<path d="" fill="#67637F" transform="translate(0,0)"/>
<path d="" fill="#6C697E" transform="translate(0,0)"/>
<path d="" fill="#6C6980" transform="translate(0,0)"/>
<path d="" fill="#6B697E" transform="translate(0,0)"/>
<path d="" fill="#6C697F" transform="translate(0,0)"/>
<path d="" fill="#666082" transform="translate(0,0)"/>
<path d="" fill="#6A677D" transform="translate(0,0)"/>
<path d="" fill="#6A6580" transform="translate(0,0)"/>
<path d="" fill="#625E82" transform="translate(0,0)"/>
<path d="" fill="#65617F" transform="translate(0,0)"/>
<path d="" fill="#635D84" transform="translate(0,0)"/>
<path d="" fill="#6B687F" transform="translate(0,0)"/>
<path d="" fill="#706D7E" transform="translate(0,0)"/>
<path d="" fill="#6A6580" transform="translate(0,0)"/>
<path d="" fill="#666181" transform="translate(0,0)"/>
<path d="" fill="#625D82" transform="translate(0,0)"/>
<path d="" fill="#625D81" transform="translate(0,0)"/>
<path d="" fill="#6F6C81" transform="translate(0,0)"/>
<path d="" fill="#6D6C7E" transform="translate(0,0)"/>
<path d="" fill="#686680" transform="translate(0,0)"/>
<path d="" fill="#6A657F" transform="translate(0,0)"/>
<path d="" fill="#6C697E" transform="translate(0,0)"/>
<path d="" fill="#6D6A7F" transform="translate(0,0)"/>
<path d="" fill="#696483" transform="translate(0,0)"/>
<path d="" fill="#6C6B80" transform="translate(0,0)"/>
<path d="" fill="#696481" transform="translate(0,0)"/>
<path d="" fill="#665F81" transform="translate(0,0)"/>
<path d="" fill="#635D83" transform="translate(0,0)"/>
<path d="" fill="#65627E" transform="translate(0,0)"/>
<path d="" fill="#6C6780" transform="translate(0,0)"/>
<path d="" fill="#635C83" transform="translate(0,0)"/>
<path d="" fill="#625C82" transform="translate(0,0)"/>
<path d="" fill="#6E6C80" transform="translate(0,0)"/>
<path d="" fill="#6C6781" transform="translate(0,0)"/>
<path d="" fill="#6B687F" transform="translate(0,0)"/>
<path d="" fill="#6A6582" transform="translate(0,0)"/>
<path d="" fill="#6D6882" transform="translate(0,0)"/>
<path d="" fill="#6D6882" transform="translate(0,0)"/>
<path d="" fill="#6F6C80" transform="translate(0,0)"/>
<path d="" fill="#625A83" transform="translate(0,0)"/>
<path d="" fill="#5E5A84" transform="translate(0,0)"/>
<path d="" fill="#615A85" transform="translate(0,0)"/>
<path d="" fill="#6C687F" transform="translate(0,0)"/>
<path d="" fill="#6D6782" transform="translate(0,0)"/>
<path d="" fill="#645C85" transform="translate(0,0)"/>
<path d="" fill="#625E81" transform="translate(0,0)"/>
<path d="" fill="#67637F" transform="translate(0,0)"/>
<path d="" fill="#6C6683" transform="translate(0,0)"/>
<path d="" fill="#6F6C81" transform="translate(0,0)"/>
<path d="" fill="#6F6C81" transform="translate(0,0)"/>
<path d="" fill="#6E6B80" transform="translate(0,0)"/>
<path d="" fill="#645C84" transform="translate(0,0)"/>
<path d="" fill="#69667F" transform="translate(0,0)"/>
<path d="" fill="#5F5986" transform="translate(0,0)"/>
<path d="" fill="#6A6585" transform="translate(0,0)"/>
<path d="" fill="#635C85" transform="translate(0,0)"/>
<path d="" fill="#635C86" transform="translate(0,0)"/>
<path d="" fill="#6E6A84" transform="translate(0,0)"/>
<path d="" fill="#6F6B80" transform="translate(0,0)"/>
<path d="" fill="#6F6B82" transform="translate(0,0)"/>
<path d="" fill="#716C82" transform="translate(0,0)"/>
<path d="" fill="#706A83" transform="translate(0,0)"/>
<path d="" fill="#6B6586" transform="translate(0,0)"/>
<path d="" fill="#6C687F" transform="translate(0,0)"/>
<path d="" fill="#6B697F" transform="translate(0,0)"/>
<path d="" fill="#706D7F" transform="translate(0,0)"/>
<path d="" fill="#706C82" transform="translate(0,0)"/>
<path d="" fill="#716B7F" transform="translate(0,0)"/>
<path d="" fill="#716D80" transform="translate(0,0)"/>
<path d="" fill="#6F6C80" transform="translate(0,0)"/>
<path d="" fill="#736B89" transform="translate(0,0)"/>
<path d="" fill="#736B88" transform="translate(0,0)"/>
<path d="" fill="#67637F" transform="translate(0,0)"/>
<path d="" fill="#5C538D" transform="translate(0,0)"/>
<path d="" fill="#695F8D" transform="translate(0,0)"/>
<path d="" fill="#5F5A86" transform="translate(0,0)"/>
<path d="" fill="#6F6C81" transform="translate(0,0)"/>
<path d="" fill="#686381" transform="translate(0,0)"/>
<path d="" fill="#776E8D" transform="translate(0,0)"/>
<path d="" fill="#6E6590" transform="translate(0,0)"/>
<path d="" fill="#716D81" transform="translate(0,0)"/>
<path d="" fill="#7B7095" transform="translate(0,0)"/>
<path d="" fill="#716E81" transform="translate(0,0)"/>
<path d="" fill="#5F5495" transform="translate(0,0)"/>
<path d="" fill="#6C5F94" transform="translate(0,0)"/>
<path d="" fill="#635E82" transform="translate(0,0)"/>
<path d="" fill="#76718A" transform="translate(0,0)"/>
<path d="" fill="#656081" transform="translate(0,0)"/>
<path d="" fill="#666580" transform="translate(0,0)"/>
<path d="" fill="#807698" transform="translate(0,0)"/>
<path d="" fill="#6F629A" transform="translate(0,0)"/>
<path d="" fill="#6A6681" transform="translate(0,0)"/>
<path d="" fill="#585192" transform="translate(0,0)"/>
<path d="" fill="#5C558D" transform="translate(0,0)"/>
<path d="" fill="#666282" transform="translate(0,0)"/>
<path d="" fill="#716E83" transform="translate(0,0)"/>
<path d="" fill="#716E82" transform="translate(0,0)"/>
<path d="" fill="#59509A" transform="translate(0,0)"/>
<path d="" fill="#635E82" transform="translate(0,0)"/>
<path d="" fill="#726F83" transform="translate(0,0)"/>
<path d="" fill="#717082" transform="translate(0,0)"/>
<path d="" fill="#5B5198" transform="translate(0,0)"/>
<path d="" fill="#676481" transform="translate(0,0)"/>
<path d="" fill="#736E83" transform="translate(0,0)"/>
<path d="" fill="#737084" transform="translate(0,0)"/>
<path d="" fill="#736E85" transform="translate(0,0)"/>
<path d="" fill="#7B768D" transform="translate(0,0)"/>
<path d="" fill="#696582" transform="translate(0,0)"/>
<path d="" fill="#CEA9F3" transform="translate(0,0)"/>
<path d="" fill="#737086" transform="translate(0,0)"/>
<path d="" fill="#C0A3DC" transform="translate(0,0)"/>
<path d="" fill="#D2ADEC" transform="translate(0,0)"/>
<path d="" fill="#D3B0F0" transform="translate(0,0)"/>
<path d="" fill="#D4B0F2" transform="translate(0,0)"/>
<path d="" fill="#D5ADF6" transform="translate(0,0)"/>
<path d="" fill="#D3AAF5" transform="translate(0,0)"/>
<path d="" fill="#C093F2" transform="translate(0,0)"/>
<path d="" fill="#B38BEC" transform="translate(0,0)"/>
<path d="" fill="#7252E3" transform="translate(0,0)"/>
<path d="" fill="#6F4EEA" transform="translate(0,0)"/>
<path d="" fill="#696781" transform="translate(0,0)"/>
<path d="" fill="#7353E5" transform="translate(0,0)"/>
<path d="" fill="#645E87" transform="translate(0,0)"/>
<path d="" fill="#737084" transform="translate(0,0)"/>
<path d="" fill="#6A6882" transform="translate(0,0)"/>
<path d="" fill="#AF86F1" transform="translate(0,0)"/>
<path d="" fill="#756F85" transform="translate(0,0)"/>
<path d="" fill="#757085" transform="translate(0,0)"/>
<path d="" fill="#837B95" transform="translate(0,0)"/>
<path d="" fill="#635C87" transform="translate(0,0)"/>
<path d="" fill="#B282F1" transform="translate(0,0)"/>
<path d="" fill="#737085" transform="translate(0,0)"/>
<path d="" fill="#5D4EA2" transform="translate(0,0)"/>
<path d="" fill="#6D6B82" transform="translate(0,0)"/>
<path d="" fill="#AF80F3" transform="translate(0,0)"/>
<path d="" fill="#757186" transform="translate(0,0)"/>
<path d="" fill="#61588D" transform="translate(0,0)"/>
<path d="" fill="#686384" transform="translate(0,0)"/>
<path d="" fill="#6A6983" transform="translate(0,0)"/>
<path d="" fill="#757287" transform="translate(0,0)"/>
<path d="" fill="#D8B4F2" transform="translate(0,0)"/>
<path d="" fill="#6042EA" transform="translate(0,0)"/>
<path d="" fill="#61598C" transform="translate(0,0)"/>
<path d="" fill="#6A6883" transform="translate(0,0)"/>
<path d="" fill="#7E55F4" transform="translate(0,0)"/>
<path d="" fill="#757084" transform="translate(0,0)"/>
<path d="" fill="#A978F6" transform="translate(0,0)"/>
<path d="" fill="#737085" transform="translate(0,0)"/>
<path d="" fill="#686583" transform="translate(0,0)"/>
<path d="" fill="#A970F2" transform="translate(0,0)"/>
<path d="" fill="#A771F7" transform="translate(0,0)"/>
<path d="" fill="#5F4CA9" transform="translate(0,0)"/>
<path d="" fill="#A772F9" transform="translate(0,0)"/>
<path d="" fill="#645D87" transform="translate(0,0)"/>
<path d="" fill="#6A6882" transform="translate(0,0)"/>
<path d="" fill="#737086" transform="translate(0,0)"/>
<path d="" fill="#A16DF4" transform="translate(0,0)"/>
<path d="" fill="#747184" transform="translate(0,0)"/>
<path d="" fill="#737285" transform="translate(0,0)"/>
<path d="" fill="#76728A" transform="translate(0,0)"/>
<path d="" fill="#A069F7" transform="translate(0,0)"/>
<path d="" fill="#7F53F5" transform="translate(0,0)"/>
<path d="" fill="#D1A7F2" transform="translate(0,0)"/>
<path d="" fill="#A168F6" transform="translate(0,0)"/>
<path d="" fill="#D1A6F4" transform="translate(0,0)"/>
<path d="" fill="#645E88" transform="translate(0,0)"/>
<path d="" fill="#9F69F5" transform="translate(0,0)"/>
<path d="" fill="#666186" transform="translate(0,0)"/>
<path d="" fill="#9E6AF7" transform="translate(0,0)"/>
<path d="" fill="#D0A4F6" transform="translate(0,0)"/>
<path d="" fill="#D0A3F5" transform="translate(0,0)"/>
<path d="" fill="#9C64F6" transform="translate(0,0)"/>
<path d="" fill="#747186" transform="translate(0,0)"/>
<path d="" fill="#737084" transform="translate(0,0)"/>
<path d="" fill="#8657F5" transform="translate(0,0)"/>
<path d="" fill="#6D43E9" transform="translate(0,0)"/>
<path d="" fill="#635A8D" transform="translate(0,0)"/>
<path d="" fill="#696583" transform="translate(0,0)"/>
<path d="" fill="#CC9CF7" transform="translate(0,0)"/>
<path d="" fill="#8C58F8" transform="translate(0,0)"/>
<path d="" fill="#8E59F8" transform="translate(0,0)"/>
<path d="" fill="#8E59F8" transform="translate(0,0)"/>
<path d="" fill="#736D83" transform="translate(0,0)"/>
<path d="" fill="#767288" transform="translate(0,0)"/>
<path d="" fill="#C599F5" transform="translate(0,0)"/>
<path d="" fill="#8E58F9" transform="translate(0,0)"/>
<path d="" fill="#747084" transform="translate(0,0)"/>
<path d="" fill="#767086" transform="translate(0,0)"/>
<path d="" fill="#6C6983" transform="translate(0,0)"/>
<path d="" fill="#C491F6" transform="translate(0,0)"/>
<path d="" fill="#7143E9" transform="translate(0,0)"/>
<path d="" fill="#BF88FA" transform="translate(0,0)"/>
<path d="" fill="#B87DFA" transform="translate(0,0)"/>
<path d="" fill="#B47FFA" transform="translate(0,0)"/>
<path d="" fill="#737185" transform="translate(0,0)"/>
<path d="" fill="#B176F8" transform="translate(0,0)"/>
<path d="" fill="#8848F1" transform="translate(0,0)"/>
<path d="" fill="#B57CF9" transform="translate(0,0)"/>
<path d="" fill="#B076F6" transform="translate(0,0)"/>
<path d="" fill="#B47AFA" transform="translate(0,0)"/>
<path d="" fill="#8A49F5" transform="translate(0,0)"/>
<path d="" fill="#8846F1" transform="translate(0,0)"/>
<path d="" fill="#757185" transform="translate(0,0)"/>
<path d="" fill="#714FB8" transform="translate(0,0)"/>
<path d="" fill="#B57FF9" transform="translate(0,0)"/>
<path d="" fill="#6D6A84" transform="translate(0,0)"/>
<path d="" fill="#747086" transform="translate(0,0)"/>
<path d="" fill="#BB82F9" transform="translate(0,0)"/>
<path d="" fill="#8342EB" transform="translate(0,0)"/>
<path d="" fill="#757185" transform="translate(0,0)"/>
<path d="" fill="#676085" transform="translate(0,0)"/>
<path d="" fill="#934BFB" transform="translate(0,0)"/>
<path d="" fill="#974FFB" transform="translate(0,0)"/>
<path d="" fill="#767085" transform="translate(0,0)"/>
<path d="" fill="#777189" transform="translate(0,0)"/>
<path d="" fill="#BE88F8" transform="translate(0,0)"/>
<path d="" fill="#954DF9" transform="translate(0,0)"/>
<path d="" fill="#757185" transform="translate(0,0)"/>
<path d="" fill="#6C6682" transform="translate(0,0)"/>
<path d="" fill="#C18EF7" transform="translate(0,0)"/>
<path d="" fill="#747184" transform="translate(0,0)"/>
<path d="" fill="#B599D0" transform="translate(0,0)"/>
<path d="" fill="#6A6784" transform="translate(0,0)"/>
<path d="" fill="#9B50F8" transform="translate(0,0)"/>
<path d="" fill="#C594F4" transform="translate(0,0)"/>
<path d="" fill="#C697F6" transform="translate(0,0)"/>
<path d="" fill="#A055F8" transform="translate(0,0)"/>
<path d="" fill="#A759FA" transform="translate(0,0)"/>
<path d="" fill="#737084" transform="translate(0,0)"/>
<path d="" fill="#A995BD" transform="translate(0,0)"/>
<path d="" fill="#C89BF4" transform="translate(0,0)"/>
<path d="" fill="#675C8C" transform="translate(0,0)"/>
<path d="" fill="#C99BF4" transform="translate(0,0)"/>
<path d="" fill="#B59BCD" transform="translate(0,0)"/>
<path d="" fill="#CA9AF3" transform="translate(0,0)"/>
<path d="" fill="#A95CF4" transform="translate(0,0)"/>
<path d="" fill="#CD9CF4" transform="translate(0,0)"/>
<path d="" fill="#8D41EB" transform="translate(0,0)"/>
<path d="" fill="#685C88" transform="translate(0,0)"/>
<path d="" fill="#D1A7F5" transform="translate(0,0)"/>
<path d="" fill="#B467F9" transform="translate(0,0)"/>
<path d="" fill="#D4A8F7" transform="translate(0,0)"/>
<path d="" fill="#B39DC5" transform="translate(0,0)"/>
<path d="" fill="#D2A9F5" transform="translate(0,0)"/>
<path d="" fill="#8F42EB" transform="translate(0,0)"/>
<path d="" fill="#D6ACF6" transform="translate(0,0)"/>
<path d="" fill="#B469F7" transform="translate(0,0)"/>
<path d="" fill="#747184" transform="translate(0,0)"/>
<path d="" fill="#6D6784" transform="translate(0,0)"/>
<path d="" fill="#D8ADF3" transform="translate(0,0)"/>
<path d="" fill="#B76FF7" transform="translate(0,0)"/>
<path d="" fill="#79748A" transform="translate(0,0)"/>
<path d="" fill="#757286" transform="translate(0,0)"/>
<path d="" fill="#6E6683" transform="translate(0,0)"/>
<path d="" fill="#BB77F9" transform="translate(0,0)"/>
<path d="" fill="#B975F8" transform="translate(0,0)"/>
<path d="" fill="#6A5D88" transform="translate(0,0)"/>
<path d="" fill="#B875F4" transform="translate(0,0)"/>
<path d="" fill="#837C94" transform="translate(0,0)"/>
<path d="" fill="#6B6584" transform="translate(0,0)"/>
<path d="" fill="#B563F8" transform="translate(0,0)"/>
<path d="" fill="#DEB8F2" transform="translate(0,0)"/>
<path d="" fill="#6B5D8C" transform="translate(0,0)"/>
<path d="" fill="#6A5F86" transform="translate(0,0)"/>
<path d="" fill="#BC7AF2" transform="translate(0,0)"/>
<path d="" fill="#C07EF6" transform="translate(0,0)"/>
<path d="" fill="#B760F6" transform="translate(0,0)"/>
<path d="" fill="#DBB7F0" transform="translate(0,0)"/>
<path d="" fill="#C080F4" transform="translate(0,0)"/>
<path d="" fill="#6E6584" transform="translate(0,0)"/>
<path d="" fill="#BE7FF3" transform="translate(0,0)"/>
<path d="" fill="#DFBBF2" transform="translate(0,0)"/>
<path d="" fill="#DFBDF3" transform="translate(0,0)"/>
<path d="" fill="#C481F6" transform="translate(0,0)"/>
<path d="" fill="#E1BCF3" transform="translate(0,0)"/>
<path d="" fill="#6A6384" transform="translate(0,0)"/>
<path d="" fill="#E1BCF4" transform="translate(0,0)"/>
<path d="" fill="#7A738A" transform="translate(0,0)"/>
<path d="" fill="#C688F3" transform="translate(0,0)"/>
<path d="" fill="#727084" transform="translate(0,0)"/>
<path d="" fill="#79748A" transform="translate(0,0)"/>
<path d="" fill="#E1BEF4" transform="translate(0,0)"/>
<path d="" fill="#6B5E87" transform="translate(0,0)"/>
<path d="" fill="#6B6385" transform="translate(0,0)"/>
<path d="" fill="#6D6683" transform="translate(0,0)"/>
<path d="" fill="#B763F6" transform="translate(0,0)"/>
<path d="" fill="#C78DF4" transform="translate(0,0)"/>
<path d="" fill="#C88CF3" transform="translate(0,0)"/>
<path d="" fill="#B663F3" transform="translate(0,0)"/>
<path d="" fill="#E0C1F1" transform="translate(0,0)"/>
<path d="" fill="#706B83" transform="translate(0,0)"/>
<path d="" fill="#9B41E7" transform="translate(0,0)"/>
<path d="" fill="#C992F5" transform="translate(0,0)"/>
<path d="" fill="#C991F4" transform="translate(0,0)"/>
<path d="" fill="#CB93F4" transform="translate(0,0)"/>
<path d="" fill="#737184" transform="translate(0,0)"/>
<path d="" fill="#72569C" transform="translate(0,0)"/>
<path d="" fill="#B769EE" transform="translate(0,0)"/>
<path d="" fill="#6B5C8A" transform="translate(0,0)"/>
<path d="" fill="#CE94F0" transform="translate(0,0)"/>
<path d="" fill="#CC97F3" transform="translate(0,0)"/>
<path d="" fill="#D4B2E2" transform="translate(0,0)"/>
<path d="" fill="#9845E1" transform="translate(0,0)"/>
<path d="" fill="#747184" transform="translate(0,0)"/>
<path d="" fill="#756F85" transform="translate(0,0)"/>
<path d="" fill="#AC5BEA" transform="translate(0,0)"/>
<path d="" fill="#747083" transform="translate(0,0)"/>
<path d="" fill="#6B598D" transform="translate(0,0)"/>
<path d="" fill="#737182" transform="translate(0,0)"/>
<path d="" fill="#6E6883" transform="translate(0,0)"/>
<path d="" fill="#7C758A" transform="translate(0,0)"/>
<path d="" fill="#756F83" transform="translate(0,0)"/>
<path d="" fill="#6D6783" transform="translate(0,0)"/>
<path d="" fill="#6B598B" transform="translate(0,0)"/>
<path d="" fill="#787487" transform="translate(0,0)"/>
<path d="" fill="#726F82" transform="translate(0,0)"/>
<path d="" fill="#715791" transform="translate(0,0)"/>
<path d="" fill="#767085" transform="translate(0,0)"/>
<path d="" fill="#6A5E82" transform="translate(0,0)"/>
<path d="" fill="#7A738B" transform="translate(0,0)"/>
<path d="" fill="#725693" transform="translate(0,0)"/>
<path d="" fill="#715691" transform="translate(0,0)"/>
<path d="" fill="#6C6580" transform="translate(0,0)"/>
<path d="" fill="#716E82" transform="translate(0,0)"/>
<path d="" fill="#736E83" transform="translate(0,0)"/>
<path d="" fill="#726F83" transform="translate(0,0)"/>
<path d="" fill="#7C748A" transform="translate(0,0)"/>
<path d="" fill="#88759C" transform="translate(0,0)"/>
<path d="" fill="#736D82" transform="translate(0,0)"/>
<path d="" fill="#726C81" transform="translate(0,0)"/>
<path d="" fill="#6B677F" transform="translate(0,0)"/>
<path d="" fill="#726D82" transform="translate(0,0)"/>
<path d="" fill="#6A6080" transform="translate(0,0)"/>
<path d="" fill="#695D84" transform="translate(0,0)"/>
<path d="" fill="#6C6980" transform="translate(0,0)"/>
<path d="" fill="#716C80" transform="translate(0,0)"/>
<path d="" fill="#716C80" transform="translate(0,0)"/>
<path d="" fill="#7D738F" transform="translate(0,0)"/>
<path d="" fill="#7C6F8E" transform="translate(0,0)"/>
<path d="" fill="#6F6B81" transform="translate(0,0)"/>
<path d="" fill="#736E85" transform="translate(0,0)"/>
<path d="" fill="#6A647D" transform="translate(0,0)"/>
<path d="" fill="#716B81" transform="translate(0,0)"/>
<path d="" fill="#776E89" transform="translate(0,0)"/>
<path d="" fill="#796D89" transform="translate(0,0)"/>
<path d="" fill="#6E6D80" transform="translate(0,0)"/>
<path d="" fill="#766F85" transform="translate(0,0)"/>
<path d="" fill="#766C86" transform="translate(0,0)"/>
<path d="" fill="#6A6080" transform="translate(0,0)"/>
<path d="" fill="#716B80" transform="translate(0,0)"/>
<path d="" fill="#6A647C" transform="translate(0,0)"/>
<path d="" fill="#716C81" transform="translate(0,0)"/>
<path d="" fill="#726884" transform="translate(0,0)"/>
<path d="" fill="#6A627F" transform="translate(0,0)"/>
<path d="" fill="#726883" transform="translate(0,0)"/>
<path d="" fill="#716C7F" transform="translate(0,0)"/>
<path d="" fill="#6B6081" transform="translate(0,0)"/>
<path d="" fill="#6F6C81" transform="translate(0,0)"/>
<path d="" fill="#6A667C" transform="translate(0,0)"/>
<path d="" fill="#706E81" transform="translate(0,0)"/>
<path d="" fill="#716D80" transform="translate(0,0)"/>
<path d="" fill="#6E6580" transform="translate(0,0)"/>
<path d="" fill="#68617D" transform="translate(0,0)"/>
<path d="" fill="#716B82" transform="translate(0,0)"/>
<path d="" fill="#6F6D7F" transform="translate(0,0)"/>
<path d="" fill="#6C637E" transform="translate(0,0)"/>
<path d="" fill="#6A647E" transform="translate(0,0)"/>
<path d="" fill="#716B80" transform="translate(0,0)"/>
<path d="" fill="#6A627F" transform="translate(0,0)"/>
<path d="" fill="#69637D" transform="translate(0,0)"/>
<path d="" fill="#716D81" transform="translate(0,0)"/>
<path d="" fill="#706A7E" transform="translate(0,0)"/>
<path d="" fill="#716C80" transform="translate(0,0)"/>
<path d="" fill="#6E667E" transform="translate(0,0)"/>
<path d="" fill="#6D687D" transform="translate(0,0)"/>
<path d="" fill="#6B657B" transform="translate(0,0)"/>
<path d="" fill="#706C80" transform="translate(0,0)"/>
<path d="" fill="#6A647C" transform="translate(0,0)"/>
<path d="" fill="#6D6A80" transform="translate(0,0)"/>
<path d="" fill="#6C657D" transform="translate(0,0)"/>
<path d="" fill="#6B647C" transform="translate(0,0)"/>
<path d="" fill="#6C657D" transform="translate(0,0)"/>
<path d="" fill="#716C80" transform="translate(0,0)"/>
<path d="" fill="#716B7F" transform="translate(0,0)"/>
<path d="" fill="#6E6A80" transform="translate(0,0)"/>
<path d="" fill="#70687E" transform="translate(0,0)"/>
<path d="" fill="#6D647E" transform="translate(0,0)"/>
<path d="" fill="#6B657D" transform="translate(0,0)"/>
<path d="" fill="#6A657C" transform="translate(0,0)"/>
<path d="" fill="#6F6A7E" transform="translate(0,0)"/>
<path d="" fill="#706A7E" transform="translate(0,0)"/>
<path d="" fill="#706E7F" transform="translate(0,0)"/>
<path d="" fill="#6F697E" transform="translate(0,0)"/>
<path d="" fill="#6E697E" transform="translate(0,0)"/>
<path d="" fill="#6E697E" transform="translate(0,0)"/>
<path d="" fill="#6F6D7F" transform="translate(0,0)"/>
<path d="" fill="#6C687E" transform="translate(0,0)"/>
<path d="" fill="#6C687D" transform="translate(0,0)"/>
<path d="" fill="#6C697E" transform="translate(0,0)"/>
<path d="" fill="#6E697F" transform="translate(0,0)"/>
<path d="" fill="#6C687E" transform="translate(0,0)"/>
<path d="" fill="#6B667D" transform="translate(0,0)"/>
<path d="" fill="#716C80" transform="translate(0,0)"/>
<path d="" fill="#706C80" transform="translate(0,0)"/>
<path d="" fill="#6D677E" transform="translate(0,0)"/>
<path d="" fill="#6D687D" transform="translate(0,0)"/>
<path d="" fill="#6C687E" transform="translate(0,0)"/>
<path d="" fill="#6D677E" transform="translate(0,0)"/>
<path d="" fill="#6D697F" transform="translate(0,0)"/>
<path d="" fill="#6F6B80" transform="translate(0,0)"/>
<path d="" fill="#6F6B7F" transform="translate(0,0)"/>
<path d="" fill="#6D687D" transform="translate(0,0)"/>
<path d="" fill="#6B667D" transform="translate(0,0)"/>
<path d="" fill="#6C667D" transform="translate(0,0)"/>
<path d="" fill="#6D677C" transform="translate(0,0)"/>
<path d="" fill="#6D687C" transform="translate(0,0)"/>
<path d="" fill="#6C667C" transform="translate(0,0)"/>
<path d="" fill="#6D697E" transform="translate(0,0)"/>
<path d="" fill="#6E6C80" transform="translate(0,0)"/>
<path d="" fill="#706B80" transform="translate(0,0)"/>
<path d="" fill="#6D677E" transform="translate(0,0)"/>
<path d="" fill="#706C7F" transform="translate(0,0)"/>
<path d="" fill="#706C7E" transform="translate(0,0)"/>
<path d="" fill="#6C667E" transform="translate(0,0)"/>
<path d="" fill="#6D687E" transform="translate(0,0)"/>
<path d="" fill="#6D687D" transform="translate(0,0)"/>
<path d="" fill="#6C687E" transform="translate(0,0)"/>
<path d="" fill="#6D677E" transform="translate(0,0)"/>
<path d="" fill="#6F6B7F" transform="translate(0,0)"/>
<path d="" fill="#6B657E" transform="translate(0,0)"/>
<path d="" fill="#6F6B7E" transform="translate(0,0)"/>
<path d="" fill="#6C677E" transform="translate(0,0)"/>
<path d="" fill="#6E697E" transform="translate(0,0)"/>
<path d="" fill="#706B7F" transform="translate(0,0)"/>
<path d="" fill="#6E6B7D" transform="translate(0,0)"/>
<path d="" fill="#6F6A7E" transform="translate(0,0)"/>
<path d="" fill="#6F6A7D" transform="translate(0,0)"/>
<path d="" fill="#6C667D" transform="translate(0,0)"/>
<path d="" fill="#6D687E" transform="translate(0,0)"/>
<path d="" fill="#6B687D" transform="translate(0,0)"/>
<path d="" fill="#706B7F" transform="translate(0,0)"/>
<path d="" fill="#6F6C80" transform="translate(0,0)"/>
<path d="" fill="#6F6D7F" transform="translate(0,0)"/>
<path d="" fill="#716A80" transform="translate(0,0)"/>
<path d="" fill="#6E6A80" transform="translate(0,0)"/>
<path d="" fill="#6E6A7F" transform="translate(0,0)"/>
<path d="" fill="#6F6B7F" transform="translate(0,0)"/>
<path d="" fill="#6E687D" transform="translate(0,0)"/>
<path d="" fill="#6C687E" transform="translate(0,0)"/>
<path d="" fill="#6F6C7F" transform="translate(0,0)"/>
</svg>
